<svg xmlns="http://www.w3.org/2000/svg" xmlns:xlink="http://www.w3.org/1999/xlink" width="237" zoomAndPan="magnify" viewBox="0 0 177.75 68.249996" height="91" preserveAspectRatio="xMidYMid meet" version="1.0"><defs><g/><clipPath id="02142a115b"><path d="M 29 22 L 60 22 L 60 52 L 29 52 Z M 29 22 " clip-rule="nonzero"/></clipPath><clipPath id="d47c450fe0"><path d="M 25.023438 37.453125 L 48.839844 18.457031 L 63.574219 36.9375 L 39.757812 55.929688 Z M 25.023438 37.453125 " clip-rule="nonzero"/></clipPath><clipPath id="e4b495c32a"><path d="M 33.722656 30.515625 L 40.140625 25.398438 C 42.449219 23.558594 45.390625 22.710938 48.324219 23.039062 C 51.257812 23.371094 53.9375 24.851562 55.777344 27.160156 L 56.636719 28.234375 C 58.476562 30.542969 59.324219 33.488281 58.996094 36.421875 C 58.664062 39.351562 57.183594 42.035156 54.875 43.875 L 48.457031 48.992188 C 46.148438 50.832031 43.207031 51.679688 40.273438 51.347656 C 37.339844 51.019531 34.660156 49.535156 32.820312 47.230469 L 31.960938 46.152344 C 30.121094 43.84375 29.273438 40.902344 29.601562 37.96875 C 29.933594 35.035156 31.417969 32.355469 33.722656 30.515625 Z M 33.722656 30.515625 " clip-rule="nonzero"/></clipPath><clipPath id="5d8ac85ead"><path d="M 0.09375 0.550781 L 30.476562 0.550781 L 30.476562 29.75 L 0.09375 29.75 Z M 0.09375 0.550781 " clip-rule="nonzero"/></clipPath><clipPath id="5e3f902438"><path d="M -3.976562 15.453125 L 19.839844 -3.542969 L 34.574219 14.9375 L 10.757812 33.929688 Z M -3.976562 15.453125 " clip-rule="nonzero"/></clipPath><clipPath id="b077911709"><path d="M 4.722656 8.515625 L 11.140625 3.398438 C 13.449219 1.558594 16.390625 0.710938 19.324219 1.039062 C 22.257812 1.371094 24.9375 2.851562 26.777344 5.160156 L 27.636719 6.234375 C 29.476562 8.542969 30.324219 11.488281 29.996094 14.421875 C 29.664062 17.351562 28.183594 20.035156 25.875 21.875 L 19.457031 26.992188 C 17.148438 28.832031 14.207031 29.679688 11.273438 29.347656 C 8.339844 29.019531 5.660156 27.535156 3.820312 25.230469 L 2.960938 24.152344 C 1.121094 21.84375 0.273438 18.902344 0.601562 15.96875 C 0.933594 13.035156 2.417969 10.355469 4.722656 8.515625 Z M 4.722656 8.515625 " clip-rule="nonzero"/></clipPath><clipPath id="9baa5e7fb8"><rect x="0" width="31" y="0" height="30"/></clipPath><clipPath id="6a44aea607"><path d="M 28 8 L 59 8 L 59 36 L 28 36 Z M 28 8 " clip-rule="nonzero"/></clipPath><clipPath id="442a1fceba"><path d="M 33.242188 5.617188 L 61.800781 16.21875 L 53.578125 38.375 L 25.019531 27.773438 Z M 33.242188 5.617188 " clip-rule="nonzero"/></clipPath><clipPath id="551ae94bc6"><path d="M 43.675781 9.492188 L 51.371094 12.347656 C 54.136719 13.375 56.382812 15.457031 57.613281 18.140625 C 58.84375 20.824219 58.957031 23.882812 57.929688 26.652344 L 57.449219 27.941406 C 56.421875 30.710938 54.339844 32.953125 51.65625 34.183594 C 48.972656 35.414062 45.914062 35.53125 43.144531 34.503906 L 35.449219 31.644531 C 32.683594 30.621094 30.4375 28.535156 29.207031 25.851562 C 27.976562 23.171875 27.863281 20.109375 28.890625 17.34375 L 29.371094 16.050781 C 30.398438 13.285156 32.480469 11.039062 35.164062 9.808594 C 37.847656 8.578125 40.90625 8.464844 43.675781 9.492188 Z M 43.675781 9.492188 " clip-rule="nonzero"/></clipPath><clipPath id="57b7a2b0d0"><path d="M 0 0.308594 L 31 0.308594 L 31 27.609375 L 0 27.609375 Z M 0 0.308594 " clip-rule="nonzero"/></clipPath><clipPath id="75f924f247"><path d="M 5.242188 -2.382812 L 33.800781 8.21875 L 25.578125 30.375 L -2.980469 19.773438 Z M 5.242188 -2.382812 " clip-rule="nonzero"/></clipPath><clipPath id="a07b752deb"><path d="M 15.675781 1.492188 L 23.371094 4.347656 C 26.136719 5.375 28.382812 7.457031 29.613281 10.140625 C 30.84375 12.824219 30.957031 15.882812 29.929688 18.652344 L 29.449219 19.941406 C 28.421875 22.710938 26.339844 24.953125 23.65625 26.183594 C 20.972656 27.414062 17.914062 27.53125 15.144531 26.503906 L 7.449219 23.644531 C 4.683594 22.621094 2.4375 20.535156 1.207031 17.851562 C -0.0234375 15.171875 -0.136719 12.109375 0.890625 9.34375 L 1.371094 8.050781 C 2.398438 5.285156 4.480469 3.039062 7.164062 1.808594 C 9.847656 0.578125 12.90625 0.464844 15.675781 1.492188 Z M 15.675781 1.492188 " clip-rule="nonzero"/></clipPath><clipPath id="99674ebba7"><rect x="0" width="31" y="0" height="28"/></clipPath><clipPath id="ac4d9086c7"><rect x="0" width="81" y="0" height="39"/></clipPath><clipPath id="b373529159"><path d="M 78 8 L 87.792969 8 L 87.792969 27 L 78 27 Z M 78 8 " clip-rule="nonzero"/></clipPath><clipPath id="e079abce65"><rect x="0" width="88" y="0" height="33"/></clipPath></defs><g clip-path="url(#02142a115b)"><g clip-path="url(#d47c450fe0)"><g clip-path="url(#e4b495c32a)"><g transform="matrix(1, 0, 0, 1, 29, 22)"><g clip-path="url(#9baa5e7fb8)"><g clip-path="url(#5d8ac85ead)"><g clip-path="url(#5e3f902438)"><g clip-path="url(#b077911709)"><path fill="#f2c94c" d="M -3.976562 15.453125 L 19.839844 -3.542969 L 34.574219 14.9375 L 10.757812 33.929688 Z M -3.976562 15.453125 " fill-opacity="1" fill-rule="nonzero"/></g></g></g></g></g></g></g></g><g clip-path="url(#6a44aea607)"><g clip-path="url(#442a1fceba)"><g clip-path="url(#551ae94bc6)"><g transform="matrix(1, 0, 0, 1, 28, 8)"><g clip-path="url(#99674ebba7)"><g clip-path="url(#57b7a2b0d0)"><g clip-path="url(#75f924f247)"><g clip-path="url(#a07b752deb)"><path fill="#1f4e79" d="M 5.242188 -2.382812 L 33.800781 8.21875 L 25.578125 30.375 L -2.980469 19.773438 Z M 5.242188 -2.382812 " fill-opacity="1" fill-rule="nonzero"/></g></g></g></g></g></g></g></g><g transform="matrix(1, 0, 0, 1, 47, 11)"><g clip-path="url(#ac4d9086c7)"><g fill="#343232" fill-opacity="1"><g transform="translate(0.42747, 28.776106)"><g><path d="M 11.03125 -9.78125 C 12.09375 -9.582031 12.992188 -9.039062 13.734375 -8.15625 C 14.472656 -7.269531 14.84375 -6.238281 14.84375 -5.0625 C 14.84375 -4.101562 14.601562 -3.238281 14.125 -2.46875 C 13.644531 -1.707031 12.941406 -1.101562 12.015625 -0.65625 C 11.097656 -0.21875 10 0 8.71875 0 L 2.171875 0 L 2.171875 -18.9375 L 8.53125 -18.9375 C 10.445312 -18.9375 11.90625 -18.492188 12.90625 -17.609375 C 13.90625 -16.722656 14.40625 -15.578125 14.40625 -14.171875 C 14.40625 -12.992188 14.085938 -12.039062 13.453125 -11.3125 C 12.828125 -10.582031 12.019531 -10.070312 11.03125 -9.78125 Z M 4.0625 -10.5625 L 8.484375 -10.5625 C 9.765625 -10.5625 10.75 -10.863281 11.4375 -11.46875 C 12.132812 -12.070312 12.484375 -12.910156 12.484375 -13.984375 C 12.484375 -15.023438 12.132812 -15.84375 11.4375 -16.4375 C 10.75 -17.039062 9.738281 -17.34375 8.40625 -17.34375 L 4.0625 -17.34375 Z M 8.59375 -1.59375 C 9.957031 -1.59375 11.023438 -1.914062 11.796875 -2.5625 C 12.566406 -3.21875 12.953125 -4.113281 12.953125 -5.25 C 12.953125 -6.394531 12.550781 -7.304688 11.75 -7.984375 C 10.945312 -8.660156 9.863281 -9 8.5 -9 L 4.0625 -9 L 4.0625 -1.59375 Z M 8.59375 -1.59375 "/></g></g></g><g fill="#343232" fill-opacity="1"><g transform="translate(16.601846, 28.776106)"><g><path d="M 4.0625 -12.171875 C 4.476562 -13.085938 5.113281 -13.796875 5.96875 -14.296875 C 6.832031 -14.804688 7.882812 -15.0625 9.125 -15.0625 L 9.125 -13.09375 L 8.609375 -13.09375 C 7.242188 -13.09375 6.144531 -12.71875 5.3125 -11.96875 C 4.476562 -11.226562 4.0625 -9.992188 4.0625 -8.265625 L 4.0625 0 L 2.171875 0 L 2.171875 -14.796875 L 4.0625 -14.796875 Z M 4.0625 -12.171875 "/></g></g></g><g fill="#343232" fill-opacity="1"><g transform="translate(26.409424, 28.776106)"><g><path d="M 1.296875 -7.421875 C 1.296875 -8.941406 1.597656 -10.273438 2.203125 -11.421875 C 2.804688 -12.566406 3.644531 -13.453125 4.71875 -14.078125 C 5.800781 -14.703125 7.019531 -15.015625 8.375 -15.015625 C 9.78125 -15.015625 10.992188 -14.6875 12.015625 -14.03125 C 13.035156 -13.382812 13.769531 -12.554688 14.21875 -11.546875 L 14.21875 -14.796875 L 16.125 -14.796875 L 16.125 0 L 14.21875 0 L 14.21875 -3.28125 C 13.75 -2.269531 13.003906 -1.429688 11.984375 -0.765625 C 10.960938 -0.109375 9.75 0.21875 8.34375 0.21875 C 7.007812 0.21875 5.800781 -0.0976562 4.71875 -0.734375 C 3.644531 -1.367188 2.804688 -2.257812 2.203125 -3.40625 C 1.597656 -4.5625 1.296875 -5.898438 1.296875 -7.421875 Z M 14.21875 -7.390625 C 14.21875 -8.585938 13.972656 -9.632812 13.484375 -10.53125 C 13.003906 -11.4375 12.34375 -12.132812 11.5 -12.625 C 10.65625 -13.113281 9.726562 -13.359375 8.71875 -13.359375 C 7.675781 -13.359375 6.738281 -13.125 5.90625 -12.65625 C 5.070312 -12.1875 4.414062 -11.503906 3.9375 -10.609375 C 3.457031 -9.710938 3.21875 -8.648438 3.21875 -7.421875 C 3.21875 -6.210938 3.457031 -5.148438 3.9375 -4.234375 C 4.414062 -3.328125 5.070312 -2.632812 5.90625 -2.15625 C 6.738281 -1.675781 7.675781 -1.4375 8.71875 -1.4375 C 9.726562 -1.4375 10.65625 -1.679688 11.5 -2.171875 C 12.34375 -2.660156 13.003906 -3.351562 13.484375 -4.25 C 13.972656 -5.15625 14.21875 -6.203125 14.21875 -7.390625 Z M 14.21875 -7.390625 "/></g></g></g><g fill="#343232" fill-opacity="1"><g transform="translate(44.697035, 28.776106)"><g><path d="M 9.109375 -15.0625 C 10.878906 -15.0625 12.320312 -14.515625 13.4375 -13.421875 C 14.5625 -12.328125 15.125 -10.742188 15.125 -8.671875 L 15.125 0 L 13.25 0 L 13.25 -8.453125 C 13.25 -10.054688 12.847656 -11.28125 12.046875 -12.125 C 11.242188 -12.976562 10.144531 -13.40625 8.75 -13.40625 C 7.320312 -13.40625 6.179688 -12.953125 5.328125 -12.046875 C 4.484375 -11.148438 4.0625 -9.828125 4.0625 -8.078125 L 4.0625 0 L 2.171875 0 L 2.171875 -14.796875 L 4.0625 -14.796875 L 4.0625 -12.265625 C 4.53125 -13.171875 5.207031 -13.863281 6.09375 -14.34375 C 6.976562 -14.820312 7.984375 -15.0625 9.109375 -15.0625 Z M 9.109375 -15.0625 "/></g></g></g><g fill="#343232" fill-opacity="1"><g transform="translate(61.84675, 28.776106)"><g><path d="M 1.296875 -7.421875 C 1.296875 -8.941406 1.601562 -10.273438 2.21875 -11.421875 C 2.832031 -12.566406 3.675781 -13.453125 4.75 -14.078125 C 5.820312 -14.703125 7.039062 -15.015625 8.40625 -15.015625 C 9.695312 -15.015625 10.867188 -14.695312 11.921875 -14.0625 C 12.972656 -13.425781 13.738281 -12.601562 14.21875 -11.59375 L 14.21875 -20.046875 L 16.125 -20.046875 L 16.125 0 L 14.21875 0 L 14.21875 -3.3125 C 13.769531 -2.28125 13.03125 -1.429688 12 -0.765625 C 10.96875 -0.109375 9.757812 0.21875 8.375 0.21875 C 7.019531 0.21875 5.800781 -0.0976562 4.71875 -0.734375 C 3.644531 -1.367188 2.804688 -2.257812 2.203125 -3.40625 C 1.597656 -4.5625 1.296875 -5.898438 1.296875 -7.421875 Z M 14.21875 -7.390625 C 14.21875 -8.585938 13.972656 -9.632812 13.484375 -10.53125 C 13.003906 -11.4375 12.34375 -12.132812 11.5 -12.625 C 10.65625 -13.113281 9.726562 -13.359375 8.71875 -13.359375 C 7.675781 -13.359375 6.738281 -13.125 5.90625 -12.65625 C 5.070312 -12.1875 4.414062 -11.503906 3.9375 -10.609375 C 3.457031 -9.710938 3.21875 -8.648438 3.21875 -7.421875 C 3.21875 -6.210938 3.457031 -5.148438 3.9375 -4.234375 C 4.414062 -3.328125 5.070312 -2.632812 5.90625 -2.15625 C 6.738281 -1.675781 7.675781 -1.4375 8.71875 -1.4375 C 9.726562 -1.4375 10.65625 -1.679688 11.5 -2.171875 C 12.34375 -2.660156 13.003906 -3.351562 13.484375 -4.25 C 13.972656 -5.15625 14.21875 -6.203125 14.21875 -7.390625 Z M 14.21875 -7.390625 "/></g></g></g></g></g><g transform="matrix(1, 0, 0, 1, 74, 29)"><g clip-path="url(#e079abce65)"><g fill="#f1e9e2" fill-opacity="1"><g transform="translate(2.228872, 22.373369)"><g><path d="M 7.316406 1.035156 C 6.398438 0.15625 5.941406 -1.105469 5.941406 -2.753906 C 5.941406 -4.460938 6.492188 -6.207031 7.589844 -7.988281 C 8.222656 -9.023438 9.078125 -9.871094 10.152344 -10.53125 C 11.257812 -11.210938 12.460938 -11.550781 13.765625 -11.550781 C 14.359375 -11.550781 14.984375 -11.449219 15.644531 -11.246094 L 15.347656 -10.273438 L 14.480469 -10.800781 C 15.605469 -12.65625 16.535156 -14.007812 17.261719 -14.859375 C 17.996094 -15.710938 18.636719 -16.367188 19.1875 -16.824219 C 20.519531 -17.902344 21.890625 -18.445312 23.300781 -18.445312 C 23.699219 -18.445312 24.023438 -18.316406 24.28125 -18.058594 C 24.535156 -17.804688 24.664062 -17.476562 24.664062 -17.082031 L 24.664062 -16.859375 L 24.574219 -16.660156 C 23.648438 -14.625 22.933594 -12.570312 22.4375 -10.503906 C 21.929688 -8.402344 21.539062 -6.363281 21.261719 -4.378906 C 20.988281 -2.410156 20.851562 -0.746094 20.851562 0.605469 C 20.851562 0.988281 20.726562 1.304688 20.476562 1.554688 C 20.226562 1.800781 19.914062 1.925781 19.53125 1.925781 C 19.175781 1.925781 18.859375 1.820312 18.582031 1.609375 C 18.347656 1.429688 18.164062 1.191406 18.03125 0.882812 C 17.847656 0.464844 17.753906 -0.105469 17.753906 -0.824219 C 17.753906 -2.207031 17.628906 -3.453125 17.371094 -4.5625 C 16.929688 -6.53125 16.207031 -7.800781 15.210938 -8.375 L 15.714844 -9.253906 L 16.617188 -8.789062 L 15.71875 -7.054688 L 14.742188 -5.179688 C 14.523438 -4.765625 14.207031 -4.195312 13.789062 -3.46875 C 13.367188 -2.734375 13.003906 -2.144531 12.703125 -1.691406 C 11.96875 -0.589844 11.171875 0.378906 10.308594 1.207031 L 9.601562 0.476562 L 9.894531 -0.496094 C 9.945312 -0.480469 10.019531 -0.472656 10.121094 -0.472656 C 11.054688 -0.472656 11.816406 -0.773438 12.414062 -1.375 C 13.085938 -2.050781 13.546875 -2.855469 13.804688 -3.78125 C 13.894531 -4.113281 14.082031 -4.371094 14.363281 -4.546875 C 14.609375 -4.699219 14.890625 -4.765625 15.207031 -4.742188 L 15.230469 -4.738281 L 15.257812 -4.738281 C 15.597656 -4.695312 15.867188 -4.542969 16.0625 -4.285156 C 16.1875 -4.117188 16.261719 -3.925781 16.28125 -3.714844 C 16.292969 -3.570312 16.277344 -3.421875 16.238281 -3.277344 L 15.261719 -3.554688 L 16.246094 -3.304688 C 15.882812 -1.890625 15.195312 -0.652344 14.1875 0.410156 C 13.097656 1.550781 11.734375 2.121094 10.101562 2.121094 C 9.707031 2.121094 9.28125 2.058594 8.816406 1.933594 L 9.082031 0.953125 L 9.71875 1.746094 C 8.203125 2.964844 6.574219 3.574219 4.832031 3.574219 C 3.683594 3.574219 2.6875 3.339844 1.839844 2.871094 C 0.972656 2.394531 0.285156 1.683594 -0.222656 0.742188 C -0.75 -0.230469 -1.015625 -1.28125 -1.015625 -2.40625 C -1.015625 -2.992188 -0.941406 -3.597656 -0.792969 -4.222656 C -0.382812 -5.988281 0.484375 -7.265625 1.800781 -8.046875 C 2.496094 -8.460938 3.253906 -8.667969 4.074219 -8.667969 C 4.546875 -8.667969 4.945312 -8.515625 5.269531 -8.207031 C 5.550781 -7.941406 5.746094 -7.578125 5.847656 -7.113281 L 6.121094 -5.878906 L 4.855469 -5.878906 C 4.261719 -5.878906 3.722656 -5.660156 3.234375 -5.226562 C 2.320312 -4.425781 1.863281 -3.261719 1.863281 -1.734375 C 1.863281 -0.914062 2.089844 -0.292969 2.546875 0.136719 C 3.023438 0.582031 3.695312 0.804688 4.5625 0.804688 C 5.445312 0.804688 6.375 0.382812 7.355469 -0.464844 L 8.019531 0.304688 Z M 8.722656 -0.429688 L 9.527344 0.34375 L 8.683594 1.070312 C 7.324219 2.25 5.949219 2.835938 4.5625 2.835938 C 3.160156 2.835938 2.027344 2.429688 1.160156 1.621094 C 0.273438 0.789062 -0.171875 -0.328125 -0.171875 -1.734375 C -0.171875 -3.878906 0.511719 -5.546875 1.878906 -6.742188 C 2.753906 -7.519531 3.746094 -7.910156 4.855469 -7.910156 L 4.855469 -6.894531 L 3.863281 -6.671875 C 3.851562 -6.722656 3.839844 -6.761719 3.828125 -6.785156 C 3.835938 -6.769531 3.851562 -6.75 3.875 -6.730469 C 3.941406 -6.667969 4.007812 -6.636719 4.074219 -6.636719 C 3.625 -6.636719 3.214844 -6.523438 2.839844 -6.300781 C 2.015625 -5.8125 1.464844 -4.964844 1.183594 -3.753906 C 1.070312 -3.28125 1.015625 -2.832031 1.015625 -2.40625 C 1.015625 -1.625 1.199219 -0.894531 1.566406 -0.222656 C 1.882812 0.367188 2.300781 0.808594 2.820312 1.09375 C 3.363281 1.390625 4.03125 1.542969 4.832031 1.542969 C 6.097656 1.542969 7.300781 1.082031 8.445312 0.160156 L 8.847656 -0.160156 L 9.347656 -0.0273438 C 9.636719 0.0507812 9.886719 0.0898438 10.101562 0.0898438 C 11.15625 0.0898438 12.027344 -0.273438 12.714844 -0.992188 C 13.480469 -1.796875 14 -2.734375 14.277344 -3.808594 L 14.28125 -3.820312 L 14.285156 -3.835938 C 14.253906 -3.738281 14.246094 -3.636719 14.257812 -3.53125 C 14.273438 -3.359375 14.332031 -3.203125 14.4375 -3.066406 C 14.53125 -2.941406 14.644531 -2.847656 14.78125 -2.785156 C 14.855469 -2.75 14.929688 -2.730469 15.003906 -2.71875 L 15.128906 -3.726562 L 15.050781 -2.714844 C 15.179688 -2.707031 15.308594 -2.742188 15.441406 -2.824219 C 15.609375 -2.925781 15.714844 -3.066406 15.761719 -3.242188 C 15.410156 -1.972656 14.777344 -0.875 13.859375 0.0546875 C 12.863281 1.058594 11.621094 1.558594 10.121094 1.558594 C 9.820312 1.558594 9.550781 1.523438 9.3125 1.449219 L 7.648438 0.949219 L 8.898438 -0.253906 C 9.652344 -0.984375 10.359375 -1.839844 11.011719 -2.816406 C 11.289062 -3.234375 11.628906 -3.789062 12.027344 -4.484375 C 12.433594 -5.1875 12.738281 -5.734375 12.9375 -6.117188 L 13.914062 -7.988281 L 15.300781 -10.664062 L 16.222656 -10.136719 C 17.738281 -9.265625 18.78125 -7.558594 19.351562 -5.019531 C 19.640625 -3.757812 19.789062 -2.359375 19.789062 -0.824219 C 19.789062 -0.386719 19.824219 -0.0898438 19.890625 0.0703125 L 19.890625 0.0664062 C 19.871094 0.0429688 19.84375 0.015625 19.8125 -0.0078125 C 19.726562 -0.0742188 19.632812 -0.105469 19.53125 -0.105469 C 19.472656 -0.105469 19.410156 -0.09375 19.34375 -0.0742188 C 19.226562 -0.0351562 19.128906 0.0273438 19.039062 0.117188 C 18.953125 0.203125 18.890625 0.304688 18.851562 0.417969 C 18.828125 0.484375 18.816406 0.546875 18.816406 0.605469 C 18.816406 -0.84375 18.960938 -2.597656 19.25 -4.660156 C 19.535156 -6.707031 19.941406 -8.816406 20.460938 -10.976562 C 20.988281 -13.171875 21.742188 -15.347656 22.722656 -17.503906 L 23.648438 -17.082031 L 22.632812 -17.082031 C 22.632812 -17.027344 22.644531 -16.972656 22.664062 -16.910156 C 22.699219 -16.804688 22.757812 -16.707031 22.84375 -16.621094 C 22.929688 -16.539062 23.023438 -16.476562 23.132812 -16.441406 C 23.195312 -16.421875 23.25 -16.410156 23.300781 -16.410156 C 22.371094 -16.410156 21.429688 -16.027344 20.480469 -15.257812 C 20.019531 -14.875 19.460938 -14.300781 18.804688 -13.535156 C 18.148438 -12.769531 17.285156 -11.507812 16.214844 -9.746094 L 15.804688 -9.070312 L 15.046875 -9.304688 C 14.582031 -9.445312 14.152344 -9.519531 13.765625 -9.519531 C 12.84375 -9.519531 11.996094 -9.28125 11.21875 -8.800781 C 10.417969 -8.308594 9.785156 -7.683594 9.320312 -6.921875 C 8.421875 -5.46875 7.972656 -4.078125 7.972656 -2.753906 C 7.972656 -1.683594 8.222656 -0.910156 8.722656 -0.429688 Z M 13.742188 -8.738281 C 12.769531 -8.738281 11.894531 -8.417969 11.113281 -7.777344 C 10.277344 -7.089844 9.664062 -6.289062 9.28125 -5.382812 C 8.886719 -4.445312 8.691406 -3.503906 8.691406 -2.558594 C 8.691406 -1.75 8.867188 -1.160156 9.226562 -0.796875 L 8.496094 -0.0859375 L 7.796875 -0.824219 C 8.304688 -1.304688 8.847656 -1.941406 9.433594 -2.738281 C 10.039062 -3.5625 10.515625 -4.253906 10.867188 -4.808594 C 11.222656 -5.378906 11.78125 -6.3125 12.542969 -7.605469 C 13.3125 -8.910156 13.8125 -9.753906 14.046875 -10.136719 L 14.914062 -9.601562 L 14.628906 -8.628906 C 14.375 -8.703125 14.078125 -8.738281 13.742188 -8.738281 Z M 13.742188 -10.769531 C 14.273438 -10.769531 14.757812 -10.707031 15.199219 -10.578125 L 16.476562 -10.203125 L 15.777344 -9.070312 C 15.550781 -8.699219 15.054688 -7.867188 14.292969 -6.574219 C 13.523438 -5.265625 12.953125 -4.316406 12.589844 -3.730469 C 12.214844 -3.132812 11.707031 -2.398438 11.070312 -1.535156 C 10.414062 -0.640625 9.789062 0.0898438 9.195312 0.652344 L 8.46875 1.339844 L 7.769531 0.621094 C 7.027344 -0.136719 6.65625 -1.199219 6.65625 -2.558594 C 6.65625 -3.777344 6.90625 -4.984375 7.410156 -6.171875 C 7.921875 -7.386719 8.726562 -8.445312 9.824219 -9.347656 C 10.980469 -10.296875 12.285156 -10.769531 13.742188 -10.769531 Z M 22.433594 -15.601562 C 21.484375 -15.351562 20.601562 -14.742188 19.785156 -13.78125 C 18.878906 -12.707031 17.941406 -11.269531 16.980469 -9.46875 L 16.082031 -9.949219 L 16.570312 -10.839844 C 18.234375 -9.933594 19.382812 -8.183594 20.019531 -5.597656 L 19.03125 -5.355469 L 18.019531 -5.460938 C 18.289062 -7.976562 18.722656 -10.289062 19.324219 -12.40625 C 19.941406 -14.582031 20.617188 -16.171875 21.355469 -17.183594 L 22.175781 -16.582031 Z M 21.917969 -17.566406 L 24.679688 -18.289062 L 22.996094 -15.984375 C 22.402344 -15.171875 21.828125 -13.792969 21.277344 -11.851562 C 20.707031 -9.847656 20.296875 -7.644531 20.042969 -5.246094 L 18.046875 -5.113281 C 17.550781 -7.121094 16.738281 -8.433594 15.597656 -9.058594 L 14.714844 -9.539062 L 15.1875 -10.429688 C 16.21875 -12.355469 17.234375 -13.910156 18.234375 -15.09375 C 19.328125 -16.382812 20.554688 -17.207031 21.917969 -17.566406 Z M 21.917969 -17.566406 "/></g></g></g><g fill="#f1e9e2" fill-opacity="1"><g transform="translate(25.138538, 22.373369)"><g><path d="M 6.894531 -5.203125 C 6.535156 -5.203125 6.214844 -5.308594 5.933594 -5.511719 C 5.6875 -5.691406 5.492188 -5.9375 5.351562 -6.246094 C 5.152344 -6.683594 5.054688 -7.273438 5.054688 -8.019531 C 5.054688 -8.839844 5.210938 -9.613281 5.527344 -10.335938 L 6.460938 -9.929688 L 7.125 -9.160156 C 6.238281 -8.390625 5.21875 -6.90625 4.066406 -4.699219 C 3.472656 -3.570312 3.03125 -2.640625 2.742188 -1.917969 C 2.488281 -1.28125 2.359375 -0.851562 2.359375 -0.628906 C 2.359375 -0.441406 2.324219 -0.265625 2.25 -0.101562 C 2.164062 0.0898438 2.035156 0.25 1.867188 0.378906 C 1.628906 0.558594 1.339844 0.648438 0.996094 0.648438 C -0.0976562 0.648438 -0.648438 -0.261719 -0.648438 -2.082031 C -0.648438 -4.316406 -0.421875 -6.347656 0.03125 -8.179688 C 0.273438 -9.152344 0.554688 -9.902344 0.871094 -10.425781 C 1.332031 -11.191406 1.90625 -11.574219 2.601562 -11.574219 C 3.046875 -11.574219 3.40625 -11.414062 3.679688 -11.101562 C 3.914062 -10.832031 4.027344 -10.492188 4.027344 -10.078125 L 4.027344 -9.921875 L 3.980469 -9.773438 C 3.335938 -7.722656 2.871094 -5.617188 2.589844 -3.464844 L 1.582031 -3.597656 L 1.582031 -4.613281 L 1.734375 -4.613281 L 1.734375 -3.597656 L 0.800781 -4.003906 C 2.019531 -6.8125 3.375 -9.019531 4.871094 -10.621094 C 5.882812 -11.703125 6.867188 -12.246094 7.824219 -12.246094 C 8.234375 -12.246094 8.582031 -12.109375 8.871094 -11.84375 C 9.183594 -11.558594 9.339844 -11.199219 9.339844 -10.773438 L 9.339844 -10.351562 L 9.042969 -10.054688 C 8.980469 -9.992188 8.894531 -9.882812 8.78125 -9.726562 C 8.699219 -9.609375 8.550781 -9.222656 8.335938 -8.5625 C 8.125 -7.90625 8.019531 -7.183594 8.019531 -6.394531 C 8.019531 -6.140625 7.957031 -5.917969 7.835938 -5.726562 C 7.730469 -5.558594 7.59375 -5.429688 7.417969 -5.335938 C 7.253906 -5.25 7.082031 -5.203125 6.894531 -5.203125 Z M 6.894531 -7.238281 C 6.742188 -7.238281 6.597656 -7.199219 6.460938 -7.128906 C 6.316406 -7.050781 6.199219 -6.941406 6.113281 -6.804688 C 6.027344 -6.667969 5.984375 -6.53125 5.984375 -6.394531 C 5.984375 -7.398438 6.125 -8.328125 6.402344 -9.191406 C 6.679688 -10.046875 6.921875 -10.621094 7.128906 -10.910156 C 7.304688 -11.15625 7.464844 -11.351562 7.605469 -11.492188 L 8.324219 -10.773438 L 7.308594 -10.773438 C 7.308594 -10.605469 7.371094 -10.464844 7.492188 -10.351562 C 7.59375 -10.257812 7.703125 -10.210938 7.824219 -10.210938 C 7.675781 -10.210938 7.5 -10.152344 7.289062 -10.027344 C 7.003906 -9.859375 6.695312 -9.597656 6.355469 -9.234375 C 5.019531 -7.800781 3.789062 -5.789062 2.667969 -3.195312 L 2.402344 -2.582031 L 0.425781 -2.582031 L 0.574219 -3.730469 C 0.871094 -6 1.359375 -8.21875 2.042969 -10.386719 L 3.011719 -10.078125 L 1.996094 -10.078125 C 1.996094 -10.0625 2 -10.039062 2.011719 -10.007812 C 2.035156 -9.925781 2.078125 -9.847656 2.140625 -9.773438 C 2.21875 -9.683594 2.308594 -9.621094 2.414062 -9.578125 C 2.480469 -9.554688 2.542969 -9.539062 2.601562 -9.539062 C 2.675781 -9.539062 2.730469 -9.554688 2.769531 -9.582031 C 2.726562 -9.554688 2.675781 -9.484375 2.609375 -9.375 C 2.398438 -9.027344 2.195312 -8.464844 2.003906 -7.6875 C 1.589844 -6.019531 1.382812 -4.152344 1.382812 -2.082031 C 1.382812 -1.628906 1.417969 -1.320312 1.480469 -1.148438 C 1.480469 -1.140625 1.484375 -1.132812 1.484375 -1.128906 C 1.484375 -1.132812 1.484375 -1.136719 1.480469 -1.140625 C 1.464844 -1.167969 1.4375 -1.199219 1.40625 -1.226562 C 1.289062 -1.332031 1.152344 -1.382812 0.996094 -1.382812 C 0.886719 -1.382812 0.769531 -1.339844 0.648438 -1.246094 C 0.535156 -1.164062 0.449219 -1.054688 0.394531 -0.925781 C 0.351562 -0.828125 0.328125 -0.730469 0.328125 -0.628906 C 0.328125 -1.113281 0.503906 -1.792969 0.855469 -2.671875 C 1.171875 -3.460938 1.640625 -4.449219 2.265625 -5.640625 C 3.539062 -8.074219 4.714844 -9.757812 5.792969 -10.695312 L 7.390625 -9.519531 C 7.1875 -9.058594 7.085938 -8.558594 7.085938 -8.019531 C 7.085938 -7.566406 7.125 -7.257812 7.199219 -7.09375 L 7.199219 -7.089844 C 7.183594 -7.113281 7.160156 -7.132812 7.128906 -7.15625 C 7.054688 -7.210938 6.976562 -7.238281 6.894531 -7.238281 Z M 6.894531 -7.238281 "/></g></g></g><g fill="#f1e9e2" fill-opacity="1"><g transform="translate(33.439768, 22.373369)"><g><path d="M 4.816406 -2.210938 C 4.941406 -2.492188 5.136719 -2.703125 5.40625 -2.84375 C 5.613281 -2.953125 5.851562 -3.011719 6.113281 -3.011719 C 6.355469 -3.011719 6.566406 -2.96875 6.75 -2.882812 C 6.933594 -2.800781 7.085938 -2.675781 7.199219 -2.515625 C 7.339844 -2.320312 7.410156 -2.105469 7.410156 -1.863281 L 7.410156 -1.621094 L 7.347656 -1.453125 C 7.257812 -1.203125 7.054688 -0.859375 6.738281 -0.429688 C 6.4375 -0.0195312 6.140625 0.316406 5.851562 0.578125 C 5.542969 0.863281 5.152344 1.113281 4.6875 1.339844 C 4.175781 1.585938 3.644531 1.710938 3.101562 1.710938 C 2.113281 1.710938 1.289062 1.460938 0.625 0.957031 C -0.0390625 0.457031 -0.507812 -0.269531 -0.78125 -1.214844 C -1.21875 -2.796875 -1.058594 -4.5625 -0.296875 -6.503906 C 0.464844 -8.449219 1.550781 -9.855469 2.953125 -10.726562 C 3.757812 -11.21875 4.542969 -11.464844 5.3125 -11.464844 C 6.21875 -11.464844 6.90625 -11.167969 7.367188 -10.574219 L 6.566406 -9.949219 L 5.597656 -10.25 C 6.136719 -11.984375 6.957031 -12.851562 8.0625 -12.851562 C 8.472656 -12.851562 8.804688 -12.714844 9.0625 -12.441406 C 9.304688 -12.183594 9.425781 -11.859375 9.425781 -11.46875 L 9.425781 -11.160156 L 9.257812 -10.902344 C 9.144531 -10.734375 9 -10.511719 8.820312 -10.234375 C 8.671875 -10.003906 8.457031 -9.550781 8.175781 -8.882812 C 7.925781 -8.289062 7.800781 -7.78125 7.800781 -7.371094 C 7.800781 -7.027344 7.699219 -6.738281 7.5 -6.503906 C 7.257812 -6.214844 6.941406 -6.070312 6.546875 -6.070312 C 6.324219 -6.070312 6.113281 -6.125 5.921875 -6.234375 C 5.742188 -6.335938 5.589844 -6.476562 5.472656 -6.65625 C 5.324219 -6.882812 5.238281 -7.164062 5.207031 -7.5 L 5.203125 -7.542969 L 5.203125 -7.585938 C 5.203125 -8.21875 5.261719 -8.816406 5.378906 -9.375 L 6.371094 -9.167969 L 5.375 -8.976562 C 5.375 -8.96875 5.382812 -8.957031 5.394531 -8.9375 C 5.417969 -8.902344 5.445312 -8.867188 5.484375 -8.84375 C 5.503906 -8.828125 5.523438 -8.816406 5.535156 -8.816406 C 5.507812 -8.820312 5.46875 -8.824219 5.417969 -8.824219 C 4.796875 -8.824219 4.1875 -8.226562 3.585938 -7.023438 C 2.871094 -5.59375 2.511719 -4.203125 2.511719 -2.859375 C 2.511719 -2.117188 2.609375 -1.59375 2.800781 -1.289062 C 2.851562 -1.207031 2.90625 -1.152344 2.96875 -1.117188 C 3.042969 -1.078125 3.144531 -1.058594 3.273438 -1.058594 C 3.523438 -1.058594 3.765625 -1.140625 4 -1.308594 C 4.296875 -1.515625 4.492188 -1.699219 4.589844 -1.867188 L 4.878906 -2.332031 L 5.746094 -1.800781 Z M 6.644531 -1.324219 L 6.332031 -0.820312 C 6.085938 -0.410156 5.699219 -0.015625 5.167969 0.355469 C 4.582031 0.765625 3.949219 0.972656 3.273438 0.972656 C 2.808594 0.972656 2.390625 0.875 2.019531 0.679688 C 1.636719 0.476562 1.324219 0.183594 1.082031 -0.207031 C 0.679688 -0.839844 0.480469 -1.726562 0.480469 -2.859375 C 0.480469 -4.523438 0.910156 -6.214844 1.769531 -7.933594 C 2.742188 -9.882812 3.960938 -10.855469 5.417969 -10.855469 C 5.910156 -10.855469 6.320312 -10.738281 6.65625 -10.503906 C 7.035156 -10.234375 7.273438 -9.855469 7.371094 -9.363281 L 7.410156 -9.164062 L 7.367188 -8.964844 C 7.28125 -8.539062 7.238281 -8.082031 7.238281 -7.585938 L 6.222656 -7.585938 L 7.234375 -7.675781 C 7.234375 -7.660156 7.234375 -7.648438 7.238281 -7.636719 C 7.226562 -7.679688 7.207031 -7.722656 7.175781 -7.769531 C 7.113281 -7.867188 7.027344 -7.945312 6.917969 -8.003906 C 6.800781 -8.070312 6.675781 -8.105469 6.546875 -8.105469 C 6.457031 -8.105469 6.367188 -8.085938 6.277344 -8.050781 C 6.148438 -8 6.039062 -7.921875 5.949219 -7.816406 C 5.828125 -7.671875 5.769531 -7.523438 5.769531 -7.371094 C 5.769531 -8.054688 5.945312 -8.824219 6.304688 -9.671875 C 6.628906 -10.449219 6.898438 -11 7.109375 -11.332031 C 7.292969 -11.621094 7.445312 -11.851562 7.566406 -12.03125 L 8.410156 -11.46875 L 7.394531 -11.46875 C 7.394531 -11.425781 7.402344 -11.375 7.417969 -11.324219 C 7.453125 -11.222656 7.507812 -11.128906 7.582031 -11.046875 C 7.667969 -10.957031 7.765625 -10.894531 7.875 -10.855469 C 7.941406 -10.832031 8.003906 -10.820312 8.0625 -10.820312 C 8.089844 -10.820312 8.113281 -10.824219 8.132812 -10.835938 C 8.105469 -10.820312 8.074219 -10.785156 8.03125 -10.734375 C 7.859375 -10.515625 7.695312 -10.15625 7.539062 -9.648438 L 6.964844 -7.796875 L 5.769531 -9.324219 C 5.710938 -9.394531 5.558594 -9.433594 5.3125 -9.433594 C 4.925781 -9.433594 4.496094 -9.289062 4.023438 -9 C 3.003906 -8.367188 2.191406 -7.289062 1.597656 -5.765625 C 1 -4.238281 0.859375 -2.910156 1.171875 -1.777344 C 1.320312 -1.265625 1.542969 -0.894531 1.847656 -0.664062 C 2.148438 -0.4375 2.566406 -0.324219 3.101562 -0.324219 C 3.335938 -0.324219 3.570312 -0.378906 3.808594 -0.492188 C 4.09375 -0.632812 4.320312 -0.773438 4.484375 -0.925781 C 4.675781 -1.097656 4.878906 -1.332031 5.097656 -1.632812 C 5.300781 -1.90625 5.414062 -2.078125 5.441406 -2.144531 L 6.394531 -1.800781 L 5.378906 -1.800781 L 5.378906 -1.863281 C 5.378906 -1.667969 5.4375 -1.488281 5.554688 -1.324219 C 5.644531 -1.199219 5.761719 -1.101562 5.898438 -1.039062 C 5.988281 -1 6.058594 -0.976562 6.113281 -0.976562 C 6.1875 -0.976562 6.269531 -1 6.355469 -1.046875 C 6.5 -1.125 6.605469 -1.238281 6.671875 -1.386719 Z M 6.644531 -1.324219 "/></g></g></g><g fill="#f1e9e2" fill-opacity="1"><g transform="translate(41.849371, 22.373369)"><g><path d="M 4.855469 -5.796875 C 4.109375 -4.445312 3.53125 -3.253906 3.121094 -2.226562 C 2.914062 -1.707031 2.761719 -1.300781 2.660156 -1 C 2.617188 -0.867188 2.582031 -0.757812 2.5625 -0.679688 C 2.554688 -0.652344 2.550781 -0.632812 2.550781 -0.621094 C 2.554688 -0.644531 2.554688 -0.671875 2.554688 -0.703125 C 2.554688 -0.320312 2.425781 -0.00390625 2.167969 0.246094 C 1.921875 0.484375 1.609375 0.605469 1.234375 0.605469 C 0.125 0.605469 -0.429688 -0.3125 -0.429688 -2.144531 C -0.429688 -4.511719 -0.191406 -6.886719 0.28125 -9.269531 C 0.761719 -11.667969 1.332031 -13.597656 2 -15.0625 C 2.359375 -15.847656 2.714844 -16.449219 3.074219 -16.871094 C 3.574219 -17.457031 4.117188 -17.75 4.703125 -17.75 C 5.101562 -17.75 5.425781 -17.621094 5.683594 -17.367188 C 5.9375 -17.109375 6.066406 -16.785156 6.066406 -16.386719 L 6.066406 -16.167969 L 5.976562 -15.96875 C 5.238281 -14.335938 4.617188 -12.46875 4.121094 -10.367188 C 3.613281 -8.226562 3.191406 -5.945312 2.847656 -3.519531 L 1.84375 -3.664062 L 1.84375 -4.679688 L 1.996094 -4.679688 L 1.996094 -3.664062 L 1.054688 -4.046875 C 2.007812 -6.390625 2.964844 -8.164062 3.925781 -9.371094 C 5.027344 -10.75 6.183594 -11.441406 7.390625 -11.441406 C 8.03125 -11.441406 8.542969 -11.257812 8.925781 -10.894531 C 9.316406 -10.515625 9.511719 -10.007812 9.511719 -9.363281 L 9.511719 -9.214844 L 9.46875 -9.070312 C 9.367188 -8.738281 9.238281 -8.304688 9.082031 -7.765625 C 8.933594 -7.257812 8.730469 -6.320312 8.476562 -4.953125 C 8.230469 -3.613281 8.105469 -2.445312 8.105469 -1.453125 C 8.105469 -0.785156 8.148438 -0.304688 8.230469 -0.015625 C 8.242188 0.0273438 8.253906 0.0585938 8.265625 0.078125 C 8.257812 0.0664062 8.246094 0.0507812 8.230469 0.03125 C 8.113281 -0.101562 7.953125 -0.171875 7.761719 -0.171875 C 7.699219 -0.171875 7.644531 -0.160156 7.597656 -0.140625 C 7.582031 -0.132812 7.574219 -0.128906 7.566406 -0.125 C 7.566406 -0.125 7.570312 -0.125 7.574219 -0.128906 C 7.691406 -0.230469 7.796875 -0.3125 7.894531 -0.375 C 8.113281 -0.511719 8.335938 -0.582031 8.5625 -0.582031 C 8.855469 -0.582031 9.105469 -0.496094 9.316406 -0.324219 C 9.46875 -0.199219 9.582031 -0.0429688 9.652344 0.140625 C 9.707031 0.285156 9.730469 0.4375 9.722656 0.597656 C 9.710938 0.871094 9.597656 1.164062 9.378906 1.484375 L 8.539062 0.910156 L 9.421875 1.414062 C 9.308594 1.613281 9.113281 1.835938 8.835938 2.082031 C 8.449219 2.425781 8.03125 2.597656 7.585938 2.597656 C 7.042969 2.597656 6.566406 2.414062 6.15625 2.042969 C 5.820312 1.738281 5.542969 1.316406 5.332031 0.773438 C 4.972656 -0.132812 4.792969 -1.28125 4.792969 -2.667969 C 4.792969 -4.882812 5.125 -7.164062 5.785156 -9.511719 L 6.761719 -9.234375 L 5.757812 -9.367188 C 5.75 -9.316406 5.75 -9.253906 5.765625 -9.1875 C 5.792969 -9.035156 5.863281 -8.898438 5.972656 -8.777344 C 6.09375 -8.644531 6.238281 -8.5625 6.410156 -8.523438 C 6.496094 -8.503906 6.574219 -8.5 6.648438 -8.511719 C 6.769531 -8.527344 6.859375 -8.566406 6.917969 -8.625 L 6.878906 -8.585938 C 6.242188 -8.011719 5.566406 -7.082031 4.855469 -5.796875 Z M 3.078125 -6.777344 C 3.898438 -8.265625 4.710938 -9.371094 5.519531 -10.097656 L 6.199219 -9.34375 L 5.480469 -10.0625 C 5.742188 -10.320312 6.035156 -10.476562 6.359375 -10.523438 C 6.53125 -10.546875 6.699219 -10.542969 6.855469 -10.507812 C 7.097656 -10.453125 7.300781 -10.335938 7.464844 -10.15625 C 7.726562 -9.875 7.828125 -9.523438 7.769531 -9.101562 L 7.761719 -9.027344 L 7.742188 -8.957031 C 7.128906 -6.792969 6.824219 -4.695312 6.824219 -2.667969 C 6.824219 -1.539062 6.957031 -0.640625 7.21875 0.0273438 C 7.316406 0.273438 7.417969 0.441406 7.515625 0.53125 C 7.542969 0.554688 7.566406 0.566406 7.585938 0.566406 C 7.535156 0.566406 7.488281 0.574219 7.453125 0.589844 L 7.449219 0.59375 C 7.457031 0.585938 7.472656 0.574219 7.484375 0.5625 C 7.558594 0.5 7.613281 0.445312 7.65625 0.402344 C 7.667969 0.386719 7.675781 0.378906 7.679688 0.371094 C 7.675781 0.378906 7.667969 0.390625 7.660156 0.40625 L 7.679688 0.371094 L 7.699219 0.339844 C 7.726562 0.304688 7.738281 0.28125 7.742188 0.269531 C 7.714844 0.332031 7.699219 0.410156 7.695312 0.507812 C 7.6875 0.625 7.707031 0.746094 7.75 0.859375 C 7.808594 1.015625 7.902344 1.144531 8.03125 1.25 C 8.195312 1.382812 8.371094 1.449219 8.5625 1.449219 C 8.730469 1.449219 8.871094 1.414062 8.980469 1.34375 C 8.96875 1.351562 8.941406 1.371094 8.902344 1.410156 C 8.550781 1.710938 8.171875 1.863281 7.761719 1.863281 C 7.339844 1.863281 6.988281 1.699219 6.703125 1.371094 C 6.519531 1.164062 6.378906 0.890625 6.28125 0.554688 C 6.140625 0.0820312 6.070312 -0.589844 6.070312 -1.453125 C 6.070312 -2.570312 6.207031 -3.859375 6.480469 -5.324219 C 6.746094 -6.757812 6.964844 -7.765625 7.132812 -8.339844 C 7.292969 -8.882812 7.421875 -9.324219 7.523438 -9.660156 L 8.496094 -9.363281 L 7.480469 -9.363281 C 7.480469 -9.425781 7.476562 -9.472656 7.46875 -9.496094 C 7.476562 -9.476562 7.492188 -9.453125 7.515625 -9.429688 C 7.539062 -9.40625 7.554688 -9.394531 7.566406 -9.390625 C 7.527344 -9.402344 7.46875 -9.410156 7.390625 -9.410156 C 6.835938 -9.410156 6.210938 -8.972656 5.515625 -8.101562 C 4.675781 -7.050781 3.816406 -5.445312 2.933594 -3.28125 L 2.675781 -2.648438 L 0.671875 -2.648438 L 0.835938 -3.804688 C 1.1875 -6.292969 1.625 -8.636719 2.144531 -10.832031 C 2.671875 -13.066406 3.332031 -15.054688 4.125 -16.808594 L 5.050781 -16.386719 L 4.035156 -16.386719 C 4.035156 -16.335938 4.042969 -16.277344 4.066406 -16.21875 C 4.101562 -16.109375 4.160156 -16.011719 4.246094 -15.929688 C 4.328125 -15.84375 4.425781 -15.785156 4.535156 -15.75 C 4.59375 -15.726562 4.652344 -15.71875 4.703125 -15.71875 C 4.757812 -15.71875 4.792969 -15.722656 4.8125 -15.734375 C 4.761719 -15.707031 4.699219 -15.644531 4.621094 -15.554688 C 4.386719 -15.277344 4.128906 -14.832031 3.851562 -14.222656 C 3.246094 -12.898438 2.722656 -11.113281 2.277344 -8.871094 C 1.824219 -6.617188 1.601562 -4.375 1.601562 -2.144531 C 1.601562 -1.691406 1.632812 -1.375 1.699219 -1.203125 C 1.703125 -1.195312 1.703125 -1.1875 1.707031 -1.183594 C 1.707031 -1.1875 1.703125 -1.191406 1.699219 -1.195312 C 1.683594 -1.222656 1.660156 -1.25 1.625 -1.28125 C 1.515625 -1.378906 1.382812 -1.429688 1.234375 -1.429688 C 1.0625 -1.429688 0.902344 -1.359375 0.757812 -1.214844 C 0.667969 -1.128906 0.601562 -1.023438 0.558594 -0.910156 C 0.535156 -0.835938 0.523438 -0.769531 0.523438 -0.703125 C 0.523438 -0.914062 0.59375 -1.226562 0.734375 -1.648438 C 0.847656 -1.984375 1.015625 -2.425781 1.234375 -2.976562 C 1.675781 -4.085938 2.289062 -5.351562 3.078125 -6.777344 Z M 3.078125 -6.777344 "/></g></g></g><g fill="#f1e9e2" fill-opacity="1"><g transform="translate(51.732823, 22.373369)"><g><path d="M -0.453125 -1.84375 C -0.453125 -4.070312 -0.222656 -6.0625 0.242188 -7.824219 C 0.492188 -8.769531 0.789062 -9.503906 1.128906 -10.015625 C 1.613281 -10.734375 2.203125 -11.09375 2.90625 -11.09375 C 3.367188 -11.09375 3.742188 -10.941406 4.027344 -10.632812 C 4.289062 -10.347656 4.417969 -9.984375 4.417969 -9.539062 L 4.417969 -9.347656 L 4.351562 -9.171875 C 4.210938 -8.808594 4.035156 -8.320312 3.820312 -7.707031 C 3.617188 -7.125 3.34375 -6.039062 2.996094 -4.453125 C 2.660156 -2.902344 2.488281 -1.523438 2.488281 -0.324219 C 2.488281 0.0703125 2.355469 0.394531 2.085938 0.644531 C 1.835938 0.878906 1.523438 0.996094 1.148438 0.996094 C 0.761719 0.996094 0.433594 0.851562 0.160156 0.570312 C -0.0195312 0.378906 -0.160156 0.136719 -0.257812 -0.164062 C -0.386719 -0.570312 -0.453125 -1.128906 -0.453125 -1.84375 Z M 1.578125 -1.84375 C 1.578125 -1.339844 1.613281 -0.988281 1.675781 -0.789062 C 1.683594 -0.769531 1.6875 -0.761719 1.6875 -0.757812 C 1.675781 -0.785156 1.652344 -0.8125 1.625 -0.839844 C 1.496094 -0.972656 1.339844 -1.039062 1.148438 -1.039062 C 0.988281 -1.039062 0.839844 -0.972656 0.699219 -0.839844 C 0.605469 -0.753906 0.539062 -0.652344 0.496094 -0.535156 C 0.472656 -0.460938 0.457031 -0.390625 0.457031 -0.324219 C 0.457031 -1.667969 0.644531 -3.191406 1.011719 -4.886719 C 1.375 -6.554688 1.671875 -7.714844 1.902344 -8.375 C 2.121094 -9.007812 2.304688 -9.515625 2.453125 -9.902344 L 3.402344 -9.539062 L 2.386719 -9.539062 C 2.386719 -9.527344 2.390625 -9.507812 2.402344 -9.476562 C 2.425781 -9.398438 2.46875 -9.324219 2.53125 -9.257812 C 2.601562 -9.179688 2.683594 -9.125 2.777344 -9.089844 C 2.824219 -9.074219 2.867188 -9.0625 2.90625 -9.0625 C 2.941406 -9.0625 2.96875 -9.070312 2.988281 -9.082031 C 2.941406 -9.050781 2.886719 -8.984375 2.820312 -8.886719 C 2.601562 -8.5625 2.398438 -8.035156 2.207031 -7.308594 C 1.789062 -5.714844 1.578125 -3.894531 1.578125 -1.84375 Z M 3.46875 -11.101562 C 3.195312 -11.101562 2.949219 -11.171875 2.722656 -11.3125 C 2.515625 -11.445312 2.347656 -11.628906 2.226562 -11.863281 C 2.074219 -12.152344 1.996094 -12.527344 1.996094 -12.984375 C 1.996094 -13.488281 2.125 -14.003906 2.382812 -14.527344 C 2.550781 -14.871094 2.773438 -15.140625 3.042969 -15.335938 C 3.355469 -15.558594 3.707031 -15.667969 4.097656 -15.667969 C 4.550781 -15.667969 4.914062 -15.511719 5.1875 -15.195312 C 5.425781 -14.921875 5.546875 -14.574219 5.546875 -14.15625 C 5.546875 -13.835938 5.445312 -13.464844 5.246094 -13.046875 C 5.089844 -12.722656 4.863281 -12.34375 4.566406 -11.910156 L 3.996094 -11.101562 Z M 3.46875 -13.132812 L 3.46875 -12.117188 L 2.636719 -12.703125 L 2.890625 -13.058594 C 3.128906 -13.40625 3.304688 -13.695312 3.414062 -13.929688 C 3.457031 -14.019531 3.488281 -14.09375 3.507812 -14.15625 C 3.511719 -14.171875 3.515625 -14.183594 3.515625 -14.191406 C 3.515625 -14.183594 3.515625 -14.171875 3.515625 -14.15625 C 3.515625 -14.140625 3.519531 -14.121094 3.527344 -14.089844 C 3.550781 -14.007812 3.59375 -13.933594 3.65625 -13.863281 C 3.730469 -13.777344 3.820312 -13.714844 3.921875 -13.671875 C 3.984375 -13.648438 4.042969 -13.636719 4.097656 -13.636719 C 4.140625 -13.636719 4.183594 -13.652344 4.226562 -13.683594 C 4.238281 -13.691406 4.246094 -13.695312 4.246094 -13.699219 C 4.234375 -13.683594 4.222656 -13.660156 4.207031 -13.632812 C 4.089844 -13.390625 4.027344 -13.171875 4.027344 -12.984375 C 4.027344 -12.898438 4.035156 -12.832031 4.042969 -12.78125 C 4.042969 -12.769531 4.046875 -12.761719 4.046875 -12.761719 C 4.042969 -12.773438 4.035156 -12.789062 4.027344 -12.804688 C 3.980469 -12.894531 3.910156 -12.96875 3.8125 -13.027344 C 3.703125 -13.097656 3.589844 -13.132812 3.46875 -13.132812 Z M 3.46875 -13.132812 "/></g></g></g><g fill="#f1e9e2" fill-opacity="1"><g transform="translate(56.457807, 22.373369)"><g><path d="M 1.277344 -8.371094 C 0.753906 -8.371094 0.328125 -8.503906 0 -8.773438 C -0.386719 -9.09375 -0.582031 -9.527344 -0.582031 -10.078125 C -0.582031 -10.371094 -0.507812 -10.628906 -0.359375 -10.855469 C -0.1875 -11.113281 0.0507812 -11.285156 0.359375 -11.378906 L 0.648438 -10.40625 L -0.0664062 -11.125 C 0.144531 -11.335938 0.40625 -11.441406 0.714844 -11.441406 L 1.183594 -11.441406 L 1.488281 -11.085938 C 1.402344 -11.183594 1.308594 -11.25 1.203125 -11.28125 C 1.1875 -11.289062 1.175781 -11.292969 1.164062 -11.292969 C 1.171875 -11.292969 1.1875 -11.289062 1.203125 -11.289062 C 1.421875 -11.289062 1.785156 -11.304688 2.285156 -11.332031 L 2.339844 -10.316406 L 1.386719 -10.671875 C 1.757812 -11.671875 2.132812 -12.4375 2.507812 -12.96875 C 3.035156 -13.714844 3.632812 -14.085938 4.292969 -14.085938 C 4.71875 -14.085938 5.0625 -13.941406 5.324219 -13.644531 C 5.558594 -13.382812 5.675781 -13.054688 5.675781 -12.660156 L 5.675781 -12.464844 L 5.605469 -12.28125 C 5.382812 -11.726562 5.128906 -11.003906 4.847656 -10.117188 L 3.878906 -10.425781 L 3.769531 -11.4375 C 5.234375 -11.597656 6.207031 -11.679688 6.675781 -11.679688 C 7.015625 -11.679688 7.296875 -11.566406 7.523438 -11.339844 C 7.753906 -11.113281 7.867188 -10.828125 7.867188 -10.492188 C 7.867188 -10.292969 7.828125 -10.105469 7.753906 -9.933594 C 7.664062 -9.726562 7.53125 -9.558594 7.351562 -9.421875 C 7.09375 -9.226562 6.773438 -9.128906 6.394531 -9.128906 C 6.296875 -9.128906 5.4375 -8.980469 3.824219 -8.691406 L 3.640625 -9.6875 L 4.609375 -9.382812 C 3.5 -5.871094 2.945312 -3.046875 2.945312 -0.910156 C 2.945312 0.078125 3.03125 0.792969 3.207031 1.230469 C 3.257812 1.351562 3.300781 1.429688 3.335938 1.457031 C 3.316406 1.441406 3.292969 1.433594 3.273438 1.433594 C 3.359375 1.433594 3.460938 1.375 3.582031 1.257812 C 3.804688 1.039062 3.953125 0.839844 4.03125 0.660156 L 4.964844 1.0625 L 4.007812 0.714844 C 4.148438 0.335938 4.398438 0.0820312 4.761719 -0.046875 C 5.058594 -0.152344 5.371094 -0.140625 5.695312 -0.015625 L 5.332031 0.933594 L 5.652344 -0.03125 C 5.917969 0.0546875 6.121094 0.207031 6.265625 0.421875 C 6.386719 0.605469 6.445312 0.804688 6.445312 1.023438 C 6.445312 1.195312 6.40625 1.359375 6.328125 1.515625 L 5.417969 1.0625 L 6.339844 1.488281 C 6.246094 1.691406 6.128906 1.925781 5.992188 2.1875 C 5.8125 2.53125 5.492188 2.917969 5.039062 3.355469 C 4.46875 3.90625 3.847656 4.179688 3.1875 4.179688 C 2.574219 4.179688 2.027344 4.042969 1.546875 3.761719 C 1.070312 3.484375 0.675781 3.082031 0.371094 2.550781 C -0.148438 1.644531 -0.410156 0.355469 -0.410156 -1.320312 C -0.410156 -3.960938 0.078125 -6.765625 1.050781 -9.746094 L 2.015625 -9.429688 L 2.160156 -8.421875 C 1.910156 -8.386719 1.617188 -8.371094 1.277344 -8.371094 Z M 1.277344 -10.402344 C 1.519531 -10.402344 1.71875 -10.414062 1.871094 -10.433594 L 3.488281 -10.667969 L 2.980469 -9.113281 C 2.074219 -6.339844 1.621094 -3.742188 1.621094 -1.320312 C 1.621094 -0.0078125 1.792969 0.945312 2.132812 1.535156 C 2.257812 1.753906 2.402344 1.910156 2.566406 2.003906 C 2.730469 2.101562 2.9375 2.148438 3.1875 2.148438 C 3.304688 2.148438 3.453125 2.0625 3.632812 1.890625 C 3.929688 1.605469 4.117188 1.386719 4.195312 1.238281 C 4.316406 1.007812 4.417969 0.808594 4.496094 0.636719 L 4.503906 0.621094 L 4.511719 0.609375 C 4.445312 0.734375 4.414062 0.875 4.414062 1.023438 C 4.414062 1.214844 4.46875 1.390625 4.574219 1.550781 C 4.6875 1.722656 4.832031 1.835938 5.011719 1.894531 L 4.988281 1.890625 L 4.96875 1.878906 C 5.105469 1.933594 5.261719 1.929688 5.4375 1.867188 C 5.570312 1.820312 5.683594 1.746094 5.777344 1.640625 C 5.839844 1.570312 5.890625 1.492188 5.917969 1.410156 L 5.910156 1.4375 L 5.898438 1.460938 C 5.714844 1.890625 5.417969 2.304688 5.003906 2.710938 C 4.488281 3.214844 3.910156 3.464844 3.273438 3.464844 C 2.804688 3.464844 2.390625 3.316406 2.035156 3.019531 C 1.734375 2.769531 1.496094 2.425781 1.320312 1.988281 C 1.050781 1.304688 0.914062 0.339844 0.914062 -0.910156 C 0.914062 -3.253906 1.5 -6.28125 2.671875 -9.996094 L 2.859375 -10.578125 L 3.460938 -10.6875 C 5.195312 -11.003906 6.175781 -11.160156 6.394531 -11.160156 C 6.386719 -11.160156 6.367188 -11.15625 6.34375 -11.152344 C 6.265625 -11.132812 6.191406 -11.09375 6.121094 -11.039062 C 6.019531 -10.960938 5.941406 -10.863281 5.890625 -10.746094 C 5.851562 -10.660156 5.832031 -10.574219 5.832031 -10.492188 C 5.832031 -10.269531 5.917969 -10.074219 6.089844 -9.902344 C 6.257812 -9.734375 6.453125 -9.648438 6.675781 -9.648438 C 6.28125 -9.648438 5.386719 -9.570312 3.992188 -9.417969 L 2.4375 -9.242188 L 2.910156 -10.734375 C 3.207031 -11.667969 3.476562 -12.433594 3.71875 -13.035156 L 4.660156 -12.660156 L 3.644531 -12.660156 C 3.644531 -12.628906 3.652344 -12.59375 3.664062 -12.546875 C 3.691406 -12.457031 3.742188 -12.367188 3.8125 -12.289062 C 3.890625 -12.199219 3.988281 -12.132812 4.097656 -12.09375 C 4.167969 -12.066406 4.230469 -12.054688 4.292969 -12.054688 C 4.335938 -12.054688 4.371094 -12.0625 4.40625 -12.074219 C 4.414062 -12.078125 4.421875 -12.078125 4.425781 -12.082031 C 4.421875 -12.082031 4.421875 -12.078125 4.414062 -12.074219 C 4.347656 -12.027344 4.265625 -11.933594 4.167969 -11.796875 C 3.894531 -11.410156 3.601562 -10.800781 3.292969 -9.964844 L 3.0625 -9.339844 L 2.398438 -9.304688 C 1.859375 -9.273438 1.460938 -9.257812 1.203125 -9.257812 C 0.652344 -9.257812 0.234375 -9.425781 -0.0546875 -9.765625 L 0.714844 -10.425781 L 0.714844 -9.410156 C 0.96875 -9.410156 1.183594 -9.503906 1.367188 -9.6875 L 1.1875 -9.503906 L 0.941406 -9.429688 C 1.105469 -9.480469 1.234375 -9.578125 1.332031 -9.726562 C 1.410156 -9.84375 1.449219 -9.960938 1.449219 -10.078125 C 1.449219 -10.097656 1.441406 -10.121094 1.429688 -10.160156 C 1.398438 -10.230469 1.351562 -10.292969 1.289062 -10.34375 C 1.25 -10.378906 1.210938 -10.398438 1.175781 -10.410156 C 1.195312 -10.40625 1.230469 -10.402344 1.277344 -10.402344 Z M 1.277344 -10.402344 "/></g></g></g><g fill="#f1e9e2" fill-opacity="1"><g transform="translate(62.721661, 22.373369)"><g><path d="M 5.679688 -11.527344 C 6.539062 -11.527344 7.210938 -11.25 7.6875 -10.691406 C 8.125 -10.179688 8.34375 -9.476562 8.34375 -8.582031 C 8.34375 -7.65625 8.046875 -6.707031 7.457031 -5.738281 C 6.949219 -4.921875 6.347656 -4.300781 5.652344 -3.882812 C 4.933594 -3.449219 4.132812 -3.234375 3.25 -3.234375 C 2.875 -3.234375 2.542969 -3.304688 2.253906 -3.449219 C 1.910156 -3.621094 1.648438 -3.882812 1.476562 -4.226562 L 0.742188 -5.699219 L 2.382812 -5.699219 C 3.0625 -5.699219 3.726562 -6.148438 4.378906 -7.054688 C 4.945312 -7.832031 5.226562 -8.507812 5.226562 -9.082031 C 5.226562 -9.140625 5.222656 -9.183594 5.214844 -9.207031 C 5.222656 -9.179688 5.242188 -9.148438 5.273438 -9.113281 C 5.320312 -9.050781 5.382812 -9.007812 5.453125 -8.976562 C 5.488281 -8.960938 5.511719 -8.953125 5.527344 -8.953125 C 5.296875 -8.953125 5.054688 -8.847656 4.796875 -8.632812 C 4.449219 -8.34375 4.101562 -7.878906 3.75 -7.246094 C 2.953125 -5.785156 2.554688 -4.285156 2.554688 -2.753906 C 2.554688 -1.789062 2.742188 -1.242188 3.109375 -1.109375 C 3.164062 -1.089844 3.253906 -1.082031 3.382812 -1.082031 C 3.484375 -1.082031 3.605469 -1.113281 3.746094 -1.175781 C 3.921875 -1.253906 4.058594 -1.34375 4.167969 -1.441406 C 4.46875 -1.71875 4.714844 -2.023438 4.910156 -2.355469 L 5.789062 -1.84375 L 4.878906 -2.296875 C 5.003906 -2.546875 5.1875 -2.738281 5.433594 -2.867188 C 5.636719 -2.976562 5.863281 -3.03125 6.113281 -3.03125 C 6.359375 -3.03125 6.566406 -3 6.738281 -2.941406 C 6.945312 -2.867188 7.113281 -2.753906 7.246094 -2.59375 C 7.460938 -2.339844 7.539062 -2.046875 7.484375 -1.71875 L 7.476562 -1.667969 L 7.460938 -1.617188 C 7.382812 -1.335938 7.164062 -0.953125 6.804688 -0.472656 C 6.488281 -0.0507812 6.191406 0.292969 5.910156 0.554688 C 5.59375 0.855469 5.195312 1.117188 4.714844 1.339844 C 4.195312 1.585938 3.664062 1.710938 3.121094 1.710938 C 2.132812 1.710938 1.304688 1.460938 0.636719 0.96875 C -0.0351562 0.472656 -0.507812 -0.25 -0.78125 -1.191406 L -0.789062 -1.214844 C -0.941406 -1.789062 -1.015625 -2.382812 -1.015625 -2.992188 C -1.015625 -4.085938 -0.769531 -5.265625 -0.273438 -6.527344 C 0.519531 -8.476562 1.632812 -9.890625 3.066406 -10.769531 C 3.914062 -11.277344 4.785156 -11.527344 5.679688 -11.527344 Z M 5.679688 -9.496094 C 5.15625 -9.496094 4.640625 -9.34375 4.132812 -9.042969 C 3.078125 -8.390625 2.238281 -7.304688 1.617188 -5.785156 C 1.214844 -4.761719 1.015625 -3.832031 1.015625 -2.992188 C 1.015625 -2.558594 1.070312 -2.140625 1.175781 -1.734375 L 0.195312 -1.472656 L 1.171875 -1.757812 C 1.316406 -1.253906 1.542969 -0.890625 1.847656 -0.664062 C 2.152344 -0.4375 2.578125 -0.324219 3.121094 -0.324219 C 3.359375 -0.324219 3.601562 -0.378906 3.847656 -0.496094 C 4.132812 -0.632812 4.355469 -0.773438 4.515625 -0.925781 C 4.714844 -1.109375 4.933594 -1.363281 5.179688 -1.695312 C 5.300781 -1.855469 5.394531 -1.988281 5.457031 -2.09375 C 5.480469 -2.132812 5.5 -2.164062 5.511719 -2.1875 L 5.515625 -2.191406 C 5.507812 -2.183594 5.503906 -2.167969 5.5 -2.152344 L 6.480469 -1.886719 L 5.480469 -2.054688 C 5.429688 -1.769531 5.5 -1.515625 5.6875 -1.292969 C 5.792969 -1.164062 5.917969 -1.078125 6.0625 -1.023438 C 6.105469 -1.011719 6.140625 -1 6.167969 -1 C 6.15625 -1 6.140625 -1 6.113281 -1 C 6.203125 -1 6.296875 -1.023438 6.390625 -1.074219 C 6.527344 -1.148438 6.628906 -1.253906 6.695312 -1.386719 L 6.679688 -1.359375 L 6.664062 -1.328125 C 6.367188 -0.824219 5.996094 -0.363281 5.542969 0.0546875 C 5.273438 0.300781 4.953125 0.511719 4.578125 0.679688 C 4.171875 0.859375 3.773438 0.949219 3.382812 0.949219 C 3.015625 0.949219 2.703125 0.902344 2.4375 0.808594 C 1.761719 0.570312 1.257812 0.105469 0.929688 -0.582031 C 0.660156 -1.152344 0.523438 -1.878906 0.523438 -2.753906 C 0.523438 -4.628906 1.007812 -6.457031 1.972656 -8.230469 C 2.988281 -10.066406 4.175781 -10.988281 5.527344 -10.988281 C 6.089844 -10.988281 6.53125 -10.785156 6.855469 -10.386719 C 7.125 -10.050781 7.257812 -9.617188 7.257812 -9.082031 C 7.257812 -8.066406 6.847656 -6.996094 6.027344 -5.867188 C 4.972656 -4.398438 3.757812 -3.664062 2.382812 -3.664062 L 2.382812 -4.683594 L 3.292969 -5.136719 C 3.265625 -5.195312 3.222656 -5.238281 3.164062 -5.265625 C 3.15625 -5.269531 3.152344 -5.273438 3.144531 -5.273438 C 3.148438 -5.273438 3.148438 -5.273438 3.152344 -5.273438 C 3.175781 -5.265625 3.210938 -5.265625 3.25 -5.265625 C 3.757812 -5.265625 4.207031 -5.382812 4.601562 -5.621094 C 5.019531 -5.875 5.390625 -6.265625 5.722656 -6.792969 C 6.113281 -7.4375 6.308594 -8.035156 6.308594 -8.582031 C 6.308594 -8.976562 6.253906 -9.238281 6.140625 -9.371094 C 6.070312 -9.453125 5.917969 -9.496094 5.679688 -9.496094 Z M 5.679688 -9.496094 "/></g></g></g><g fill="#f1e9e2" fill-opacity="1"><g transform="translate(71.15294, 22.373369)"><g><path d="M 4.816406 -2.210938 C 4.941406 -2.492188 5.136719 -2.703125 5.40625 -2.84375 C 5.613281 -2.953125 5.851562 -3.011719 6.113281 -3.011719 C 6.355469 -3.011719 6.566406 -2.96875 6.75 -2.882812 C 6.933594 -2.800781 7.085938 -2.675781 7.199219 -2.515625 C 7.339844 -2.320312 7.410156 -2.105469 7.410156 -1.863281 L 7.410156 -1.621094 L 7.347656 -1.453125 C 7.257812 -1.203125 7.054688 -0.859375 6.738281 -0.429688 C 6.4375 -0.0195312 6.140625 0.316406 5.851562 0.578125 C 5.542969 0.863281 5.152344 1.113281 4.6875 1.339844 C 4.175781 1.585938 3.644531 1.710938 3.101562 1.710938 C 2.113281 1.710938 1.289062 1.460938 0.625 0.957031 C -0.0390625 0.457031 -0.507812 -0.269531 -0.78125 -1.214844 C -1.21875 -2.796875 -1.058594 -4.5625 -0.296875 -6.503906 C 0.464844 -8.449219 1.550781 -9.855469 2.953125 -10.726562 C 3.757812 -11.21875 4.542969 -11.464844 5.3125 -11.464844 C 6.21875 -11.464844 6.90625 -11.167969 7.367188 -10.574219 L 6.566406 -9.949219 L 5.597656 -10.25 C 6.136719 -11.984375 6.957031 -12.851562 8.0625 -12.851562 C 8.472656 -12.851562 8.804688 -12.714844 9.0625 -12.441406 C 9.304688 -12.183594 9.425781 -11.859375 9.425781 -11.46875 L 9.425781 -11.160156 L 9.257812 -10.902344 C 9.144531 -10.734375 9 -10.511719 8.820312 -10.234375 C 8.671875 -10.003906 8.457031 -9.550781 8.175781 -8.882812 C 7.925781 -8.289062 7.800781 -7.78125 7.800781 -7.371094 C 7.800781 -7.027344 7.699219 -6.738281 7.5 -6.503906 C 7.257812 -6.214844 6.941406 -6.070312 6.546875 -6.070312 C 6.324219 -6.070312 6.113281 -6.125 5.921875 -6.234375 C 5.742188 -6.335938 5.589844 -6.476562 5.472656 -6.65625 C 5.324219 -6.882812 5.238281 -7.164062 5.207031 -7.5 L 5.203125 -7.542969 L 5.203125 -7.585938 C 5.203125 -8.21875 5.261719 -8.816406 5.378906 -9.375 L 6.371094 -9.167969 L 5.375 -8.976562 C 5.375 -8.96875 5.382812 -8.957031 5.394531 -8.9375 C 5.417969 -8.902344 5.445312 -8.867188 5.484375 -8.84375 C 5.503906 -8.828125 5.523438 -8.816406 5.535156 -8.816406 C 5.507812 -8.820312 5.46875 -8.824219 5.417969 -8.824219 C 4.796875 -8.824219 4.1875 -8.226562 3.585938 -7.023438 C 2.871094 -5.59375 2.511719 -4.203125 2.511719 -2.859375 C 2.511719 -2.117188 2.609375 -1.59375 2.800781 -1.289062 C 2.851562 -1.207031 2.90625 -1.152344 2.96875 -1.117188 C 3.042969 -1.078125 3.144531 -1.058594 3.273438 -1.058594 C 3.523438 -1.058594 3.765625 -1.140625 4 -1.308594 C 4.296875 -1.515625 4.492188 -1.699219 4.589844 -1.867188 L 4.878906 -2.332031 L 5.746094 -1.800781 Z M 6.644531 -1.324219 L 6.332031 -0.820312 C 6.085938 -0.410156 5.699219 -0.015625 5.167969 0.355469 C 4.582031 0.765625 3.949219 0.972656 3.273438 0.972656 C 2.808594 0.972656 2.390625 0.875 2.019531 0.679688 C 1.636719 0.476562 1.324219 0.183594 1.082031 -0.207031 C 0.679688 -0.839844 0.480469 -1.726562 0.480469 -2.859375 C 0.480469 -4.523438 0.910156 -6.214844 1.769531 -7.933594 C 2.742188 -9.882812 3.960938 -10.855469 5.417969 -10.855469 C 5.910156 -10.855469 6.320312 -10.738281 6.65625 -10.503906 C 7.035156 -10.234375 7.273438 -9.855469 7.371094 -9.363281 L 7.410156 -9.164062 L 7.367188 -8.964844 C 7.28125 -8.539062 7.238281 -8.082031 7.238281 -7.585938 L 6.222656 -7.585938 L 7.234375 -7.675781 C 7.234375 -7.660156 7.234375 -7.648438 7.238281 -7.636719 C 7.226562 -7.679688 7.207031 -7.722656 7.175781 -7.769531 C 7.113281 -7.867188 7.027344 -7.945312 6.917969 -8.003906 C 6.800781 -8.070312 6.675781 -8.105469 6.546875 -8.105469 C 6.457031 -8.105469 6.367188 -8.085938 6.277344 -8.050781 C 6.148438 -8 6.039062 -7.921875 5.949219 -7.816406 C 5.828125 -7.671875 5.769531 -7.523438 5.769531 -7.371094 C 5.769531 -8.054688 5.945312 -8.824219 6.304688 -9.671875 C 6.628906 -10.449219 6.898438 -11 7.109375 -11.332031 C 7.292969 -11.621094 7.445312 -11.851562 7.566406 -12.03125 L 8.410156 -11.46875 L 7.394531 -11.46875 C 7.394531 -11.425781 7.402344 -11.375 7.417969 -11.324219 C 7.453125 -11.222656 7.507812 -11.128906 7.582031 -11.046875 C 7.667969 -10.957031 7.765625 -10.894531 7.875 -10.855469 C 7.941406 -10.832031 8.003906 -10.820312 8.0625 -10.820312 C 8.089844 -10.820312 8.113281 -10.824219 8.132812 -10.835938 C 8.105469 -10.820312 8.074219 -10.785156 8.03125 -10.734375 C 7.859375 -10.515625 7.695312 -10.15625 7.539062 -9.648438 L 6.964844 -7.796875 L 5.769531 -9.324219 C 5.710938 -9.394531 5.558594 -9.433594 5.3125 -9.433594 C 4.925781 -9.433594 4.496094 -9.289062 4.023438 -9 C 3.003906 -8.367188 2.191406 -7.289062 1.597656 -5.765625 C 1 -4.238281 0.859375 -2.910156 1.171875 -1.777344 C 1.320312 -1.265625 1.542969 -0.894531 1.847656 -0.664062 C 2.148438 -0.4375 2.566406 -0.324219 3.101562 -0.324219 C 3.335938 -0.324219 3.570312 -0.378906 3.808594 -0.492188 C 4.09375 -0.632812 4.320312 -0.773438 4.484375 -0.925781 C 4.675781 -1.097656 4.878906 -1.332031 5.097656 -1.632812 C 5.300781 -1.90625 5.414062 -2.078125 5.441406 -2.144531 L 6.394531 -1.800781 L 5.378906 -1.800781 L 5.378906 -1.863281 C 5.378906 -1.667969 5.4375 -1.488281 5.554688 -1.324219 C 5.644531 -1.199219 5.761719 -1.101562 5.898438 -1.039062 C 5.988281 -1 6.058594 -0.976562 6.113281 -0.976562 C 6.1875 -0.976562 6.269531 -1 6.355469 -1.046875 C 6.5 -1.125 6.605469 -1.238281 6.671875 -1.386719 Z M 6.644531 -1.324219 "/></g></g></g><g clip-path="url(#b373529159)"><g fill="#f1e9e2" fill-opacity="1"><g transform="translate(79.562543, 22.373369)"><g><path d="M 1.277344 -8.371094 C 0.753906 -8.371094 0.328125 -8.503906 0 -8.773438 C -0.386719 -9.09375 -0.582031 -9.527344 -0.582031 -10.078125 C -0.582031 -10.371094 -0.507812 -10.628906 -0.359375 -10.855469 C -0.1875 -11.113281 0.0507812 -11.285156 0.359375 -11.378906 L 0.648438 -10.40625 L -0.0664062 -11.125 C 0.144531 -11.335938 0.40625 -11.441406 0.714844 -11.441406 L 1.183594 -11.441406 L 1.488281 -11.085938 C 1.402344 -11.183594 1.308594 -11.25 1.203125 -11.28125 C 1.1875 -11.289062 1.175781 -11.292969 1.164062 -11.292969 C 1.171875 -11.292969 1.1875 -11.289062 1.203125 -11.289062 C 1.421875 -11.289062 1.785156 -11.304688 2.285156 -11.332031 L 2.339844 -10.316406 L 1.386719 -10.671875 C 1.757812 -11.671875 2.132812 -12.4375 2.507812 -12.96875 C 3.035156 -13.714844 3.632812 -14.085938 4.292969 -14.085938 C 4.71875 -14.085938 5.0625 -13.941406 5.324219 -13.644531 C 5.558594 -13.382812 5.675781 -13.054688 5.675781 -12.660156 L 5.675781 -12.464844 L 5.605469 -12.28125 C 5.382812 -11.726562 5.128906 -11.003906 4.847656 -10.117188 L 3.878906 -10.425781 L 3.769531 -11.4375 C 5.234375 -11.597656 6.207031 -11.679688 6.675781 -11.679688 C 7.015625 -11.679688 7.296875 -11.566406 7.523438 -11.339844 C 7.753906 -11.113281 7.867188 -10.828125 7.867188 -10.492188 C 7.867188 -10.292969 7.828125 -10.105469 7.753906 -9.933594 C 7.664062 -9.726562 7.53125 -9.558594 7.351562 -9.421875 C 7.09375 -9.226562 6.773438 -9.128906 6.394531 -9.128906 C 6.296875 -9.128906 5.4375 -8.980469 3.824219 -8.691406 L 3.640625 -9.6875 L 4.609375 -9.382812 C 3.5 -5.871094 2.945312 -3.046875 2.945312 -0.910156 C 2.945312 0.078125 3.03125 0.792969 3.207031 1.230469 C 3.257812 1.351562 3.300781 1.429688 3.335938 1.457031 C 3.316406 1.441406 3.292969 1.433594 3.273438 1.433594 C 3.359375 1.433594 3.460938 1.375 3.582031 1.257812 C 3.804688 1.039062 3.953125 0.839844 4.03125 0.660156 L 4.964844 1.0625 L 4.007812 0.714844 C 4.148438 0.335938 4.398438 0.0820312 4.761719 -0.046875 C 5.058594 -0.152344 5.371094 -0.140625 5.695312 -0.015625 L 5.332031 0.933594 L 5.652344 -0.03125 C 5.917969 0.0546875 6.121094 0.207031 6.265625 0.421875 C 6.386719 0.605469 6.445312 0.804688 6.445312 1.023438 C 6.445312 1.195312 6.40625 1.359375 6.328125 1.515625 L 5.417969 1.0625 L 6.339844 1.488281 C 6.246094 1.691406 6.128906 1.925781 5.992188 2.1875 C 5.8125 2.53125 5.492188 2.917969 5.039062 3.355469 C 4.46875 3.90625 3.847656 4.179688 3.1875 4.179688 C 2.574219 4.179688 2.027344 4.042969 1.546875 3.761719 C 1.070312 3.484375 0.675781 3.082031 0.371094 2.550781 C -0.148438 1.644531 -0.410156 0.355469 -0.410156 -1.320312 C -0.410156 -3.960938 0.078125 -6.765625 1.050781 -9.746094 L 2.015625 -9.429688 L 2.160156 -8.421875 C 1.910156 -8.386719 1.617188 -8.371094 1.277344 -8.371094 Z M 1.277344 -10.402344 C 1.519531 -10.402344 1.71875 -10.414062 1.871094 -10.433594 L 3.488281 -10.667969 L 2.980469 -9.113281 C 2.074219 -6.339844 1.621094 -3.742188 1.621094 -1.320312 C 1.621094 -0.0078125 1.792969 0.945312 2.132812 1.535156 C 2.257812 1.753906 2.402344 1.910156 2.566406 2.003906 C 2.730469 2.101562 2.9375 2.148438 3.1875 2.148438 C 3.304688 2.148438 3.453125 2.0625 3.632812 1.890625 C 3.929688 1.605469 4.117188 1.386719 4.195312 1.238281 C 4.316406 1.007812 4.417969 0.808594 4.496094 0.636719 L 4.503906 0.621094 L 4.511719 0.609375 C 4.445312 0.734375 4.414062 0.875 4.414062 1.023438 C 4.414062 1.214844 4.46875 1.390625 4.574219 1.550781 C 4.6875 1.722656 4.832031 1.835938 5.011719 1.894531 L 4.988281 1.890625 L 4.96875 1.878906 C 5.105469 1.933594 5.261719 1.929688 5.4375 1.867188 C 5.570312 1.820312 5.683594 1.746094 5.777344 1.640625 C 5.839844 1.570312 5.890625 1.492188 5.917969 1.410156 L 5.910156 1.4375 L 5.898438 1.460938 C 5.714844 1.890625 5.417969 2.304688 5.003906 2.710938 C 4.488281 3.214844 3.910156 3.464844 3.273438 3.464844 C 2.804688 3.464844 2.390625 3.316406 2.035156 3.019531 C 1.734375 2.769531 1.496094 2.425781 1.320312 1.988281 C 1.050781 1.304688 0.914062 0.339844 0.914062 -0.910156 C 0.914062 -3.253906 1.5 -6.28125 2.671875 -9.996094 L 2.859375 -10.578125 L 3.460938 -10.6875 C 5.195312 -11.003906 6.175781 -11.160156 6.394531 -11.160156 C 6.386719 -11.160156 6.367188 -11.15625 6.34375 -11.152344 C 6.265625 -11.132812 6.191406 -11.09375 6.121094 -11.039062 C 6.019531 -10.960938 5.941406 -10.863281 5.890625 -10.746094 C 5.851562 -10.660156 5.832031 -10.574219 5.832031 -10.492188 C 5.832031 -10.269531 5.917969 -10.074219 6.089844 -9.902344 C 6.257812 -9.734375 6.453125 -9.648438 6.675781 -9.648438 C 6.28125 -9.648438 5.386719 -9.570312 3.992188 -9.417969 L 2.4375 -9.242188 L 2.910156 -10.734375 C 3.207031 -11.667969 3.476562 -12.433594 3.71875 -13.035156 L 4.660156 -12.660156 L 3.644531 -12.660156 C 3.644531 -12.628906 3.652344 -12.59375 3.664062 -12.546875 C 3.691406 -12.457031 3.742188 -12.367188 3.8125 -12.289062 C 3.890625 -12.199219 3.988281 -12.132812 4.097656 -12.09375 C 4.167969 -12.066406 4.230469 -12.054688 4.292969 -12.054688 C 4.335938 -12.054688 4.371094 -12.0625 4.40625 -12.074219 C 4.414062 -12.078125 4.421875 -12.078125 4.425781 -12.082031 C 4.421875 -12.082031 4.421875 -12.078125 4.414062 -12.074219 C 4.347656 -12.027344 4.265625 -11.933594 4.167969 -11.796875 C 3.894531 -11.410156 3.601562 -10.800781 3.292969 -9.964844 L 3.0625 -9.339844 L 2.398438 -9.304688 C 1.859375 -9.273438 1.460938 -9.257812 1.203125 -9.257812 C 0.652344 -9.257812 0.234375 -9.425781 -0.0546875 -9.765625 L 0.714844 -10.425781 L 0.714844 -9.410156 C 0.96875 -9.410156 1.183594 -9.503906 1.367188 -9.6875 L 1.1875 -9.503906 L 0.941406 -9.429688 C 1.105469 -9.480469 1.234375 -9.578125 1.332031 -9.726562 C 1.410156 -9.84375 1.449219 -9.960938 1.449219 -10.078125 C 1.449219 -10.097656 1.441406 -10.121094 1.429688 -10.160156 C 1.398438 -10.230469 1.351562 -10.292969 1.289062 -10.34375 C 1.25 -10.378906 1.210938 -10.398438 1.175781 -10.410156 C 1.195312 -10.40625 1.230469 -10.402344 1.277344 -10.402344 Z M 1.277344 -10.402344 "/></g></g></g></g><g fill="#000000" fill-opacity="1"><g transform="translate(2.228872, 22.373369)"><g><path d="M 8.015625 0.296875 C 7.304688 -0.378906 6.953125 -1.394531 6.953125 -2.75 C 6.953125 -4.269531 7.453125 -5.835938 8.453125 -7.453125 C 8.992188 -8.347656 9.734375 -9.082031 10.671875 -9.65625 C 11.617188 -10.238281 12.644531 -10.53125 13.75 -10.53125 C 14.25 -10.53125 14.78125 -10.445312 15.34375 -10.28125 C 16.4375 -12.082031 17.328125 -13.382812 18.015625 -14.1875 C 18.710938 -15 19.316406 -15.617188 19.828125 -16.046875 C 20.960938 -16.960938 22.117188 -17.421875 23.296875 -17.421875 C 23.523438 -17.421875 23.640625 -17.304688 23.640625 -17.078125 C 22.691406 -14.984375 21.957031 -12.867188 21.4375 -10.734375 C 20.925781 -8.609375 20.53125 -6.535156 20.25 -4.515625 C 19.96875 -2.503906 19.828125 -0.796875 19.828125 0.609375 C 19.828125 0.804688 19.722656 0.90625 19.515625 0.90625 C 19.015625 0.90625 18.765625 0.328125 18.765625 -0.828125 C 18.765625 -2.285156 18.628906 -3.609375 18.359375 -4.796875 C 17.847656 -7.046875 16.960938 -8.53125 15.703125 -9.25 C 15.546875 -8.945312 15.242188 -8.367188 14.796875 -7.515625 C 14.359375 -6.671875 14.035156 -6.046875 13.828125 -5.640625 C 13.617188 -5.242188 13.304688 -4.6875 12.890625 -3.96875 C 12.484375 -3.257812 12.132812 -2.6875 11.84375 -2.25 C 11.15625 -1.207031 10.40625 -0.296875 9.59375 0.484375 C 9.738281 0.523438 9.910156 0.546875 10.109375 0.546875 C 11.328125 0.546875 12.332031 0.144531 13.125 -0.65625 C 13.925781 -1.457031 14.476562 -2.410156 14.78125 -3.515625 C 14.820312 -3.671875 14.9375 -3.742188 15.125 -3.734375 C 15.238281 -3.710938 15.28125 -3.65625 15.25 -3.5625 C 14.9375 -2.3125 14.332031 -1.21875 13.4375 -0.28125 C 12.550781 0.644531 11.4375 1.109375 10.09375 1.109375 C 9.789062 1.109375 9.453125 1.054688 9.078125 0.953125 C 7.742188 2.023438 6.328125 2.5625 4.828125 2.5625 C 2.878906 2.5625 1.492188 1.796875 0.671875 0.265625 C 0.222656 -0.554688 0 -1.445312 0 -2.40625 C 0 -2.914062 0.0625 -3.441406 0.1875 -3.984375 C 0.53125 -5.472656 1.238281 -6.535156 2.3125 -7.171875 C 2.84375 -7.492188 3.425781 -7.65625 4.0625 -7.65625 C 4.269531 -7.65625 4.4375 -7.59375 4.5625 -7.46875 C 4.695312 -7.34375 4.789062 -7.148438 4.84375 -6.890625 C 4 -6.890625 3.234375 -6.585938 2.546875 -5.984375 C 1.410156 -4.984375 0.84375 -3.566406 0.84375 -1.734375 C 0.84375 -0.617188 1.175781 0.25 1.84375 0.875 C 2.519531 1.507812 3.425781 1.828125 4.5625 1.828125 C 5.695312 1.828125 6.847656 1.316406 8.015625 0.296875 Z M 13.734375 -9.75 C 12.523438 -9.75 11.4375 -9.351562 10.46875 -8.5625 C 9.5 -7.769531 8.789062 -6.84375 8.34375 -5.78125 C 7.894531 -4.71875 7.671875 -3.644531 7.671875 -2.5625 C 7.671875 -1.476562 7.941406 -0.65625 8.484375 -0.09375 C 9.035156 -0.601562 9.617188 -1.28125 10.234375 -2.125 C 10.859375 -2.976562 11.351562 -3.691406 11.71875 -4.265625 C 12.082031 -4.847656 12.644531 -5.785156 13.40625 -7.078125 C 14.175781 -8.378906 14.675781 -9.222656 14.90625 -9.609375 C 14.5625 -9.703125 14.171875 -9.75 13.734375 -9.75 Z M 22.171875 -16.578125 C 21.015625 -16.273438 19.957031 -15.5625 19 -14.4375 C 18.050781 -13.3125 17.078125 -11.816406 16.078125 -9.953125 C 17.472656 -9.179688 18.457031 -7.648438 19.03125 -5.359375 C 19.289062 -7.804688 19.710938 -10.0625 20.296875 -12.125 C 20.878906 -14.1875 21.503906 -15.671875 22.171875 -16.578125 Z M 22.171875 -16.578125 "/></g></g></g><g fill="#000000" fill-opacity="1"><g transform="translate(25.138538, 22.373369)"><g><path d="M 6.890625 -6.21875 C 6.335938 -6.21875 6.0625 -6.816406 6.0625 -8.015625 C 6.0625 -8.691406 6.191406 -9.328125 6.453125 -9.921875 C 5.472656 -9.066406 4.375 -7.476562 3.15625 -5.15625 C 1.945312 -2.84375 1.34375 -1.332031 1.34375 -0.625 C 1.34375 -0.457031 1.226562 -0.375 1 -0.375 C 0.582031 -0.375 0.375 -0.941406 0.375 -2.078125 C 0.375 -4.234375 0.585938 -6.1875 1.015625 -7.9375 C 1.453125 -9.6875 1.976562 -10.5625 2.59375 -10.5625 C 2.875 -10.5625 3.015625 -10.398438 3.015625 -10.078125 C 2.347656 -7.972656 1.867188 -5.8125 1.578125 -3.59375 L 1.734375 -3.59375 C 2.898438 -6.300781 4.191406 -8.410156 5.609375 -9.921875 C 6.421875 -10.796875 7.160156 -11.234375 7.828125 -11.234375 C 7.972656 -11.234375 8.09375 -11.1875 8.1875 -11.09375 C 8.28125 -11.007812 8.328125 -10.898438 8.328125 -10.765625 C 8.222656 -10.671875 8.097656 -10.519531 7.953125 -10.3125 C 7.804688 -10.113281 7.609375 -9.632812 7.359375 -8.875 C 7.117188 -8.113281 7 -7.285156 7 -6.390625 C 7 -6.273438 6.960938 -6.21875 6.890625 -6.21875 Z M 6.890625 -6.21875 "/></g></g></g><g fill="#000000" fill-opacity="1"><g transform="translate(33.439768, 22.373369)"><g><path d="M 5.75 -1.796875 C 5.800781 -1.929688 5.921875 -2 6.109375 -2 C 6.296875 -2 6.390625 -1.953125 6.390625 -1.859375 L 6.390625 -1.796875 C 6.335938 -1.640625 6.179688 -1.382812 5.921875 -1.03125 C 5.660156 -0.675781 5.410156 -0.390625 5.171875 -0.171875 C 4.929688 0.046875 4.625 0.242188 4.25 0.421875 C 3.875 0.597656 3.488281 0.6875 3.09375 0.6875 C 1.582031 0.6875 0.613281 -0.0390625 0.1875 -1.5 C -0.1875 -2.851562 -0.0351562 -4.394531 0.640625 -6.125 C 1.328125 -7.863281 2.273438 -9.109375 3.484375 -9.859375 C 4.117188 -10.253906 4.722656 -10.453125 5.296875 -10.453125 C 5.878906 -10.453125 6.300781 -10.285156 6.5625 -9.953125 C 6.957031 -11.203125 7.457031 -11.828125 8.0625 -11.828125 C 8.289062 -11.828125 8.40625 -11.707031 8.40625 -11.46875 C 8.289062 -11.289062 8.140625 -11.0625 7.953125 -10.78125 C 7.773438 -10.5 7.535156 -9.992188 7.234375 -9.265625 C 6.929688 -8.546875 6.78125 -7.914062 6.78125 -7.375 C 6.78125 -7.1875 6.703125 -7.09375 6.546875 -7.09375 C 6.359375 -7.09375 6.25 -7.257812 6.21875 -7.59375 C 6.21875 -8.15625 6.269531 -8.679688 6.375 -9.171875 C 6.289062 -9.617188 5.972656 -9.84375 5.421875 -9.84375 C 4.378906 -9.84375 3.460938 -9.050781 2.671875 -7.46875 C 1.890625 -5.894531 1.5 -4.359375 1.5 -2.859375 C 1.5 -0.984375 2.085938 -0.046875 3.265625 -0.046875 C 3.734375 -0.046875 4.171875 -0.1875 4.578125 -0.46875 C 4.992188 -0.757812 5.289062 -1.050781 5.46875 -1.34375 Z M 5.75 -1.796875 "/></g></g></g><g fill="#000000" fill-opacity="1"><g transform="translate(41.849371, 22.373369)"><g><path d="M 3.953125 -6.28125 C 3.191406 -4.894531 2.597656 -3.664062 2.171875 -2.59375 C 1.742188 -1.53125 1.53125 -0.898438 1.53125 -0.703125 C 1.53125 -0.503906 1.429688 -0.40625 1.234375 -0.40625 C 0.796875 -0.40625 0.578125 -0.984375 0.578125 -2.140625 C 0.578125 -4.441406 0.804688 -6.75 1.265625 -9.0625 C 1.734375 -11.382812 2.285156 -13.242188 2.921875 -14.640625 C 3.554688 -16.035156 4.148438 -16.734375 4.703125 -16.734375 C 4.929688 -16.734375 5.046875 -16.617188 5.046875 -16.390625 C 4.285156 -14.691406 3.644531 -12.757812 3.125 -10.59375 C 2.613281 -8.425781 2.1875 -6.113281 1.84375 -3.65625 L 2 -3.65625 C 3.832031 -8.164062 5.628906 -10.421875 7.390625 -10.421875 C 8.128906 -10.421875 8.5 -10.066406 8.5 -9.359375 C 8.394531 -9.023438 8.265625 -8.585938 8.109375 -8.046875 C 7.953125 -7.503906 7.742188 -6.53125 7.484375 -5.125 C 7.222656 -3.726562 7.09375 -2.503906 7.09375 -1.453125 C 7.09375 0.078125 7.316406 0.84375 7.765625 0.84375 C 7.921875 0.84375 8.078125 0.773438 8.234375 0.640625 C 8.390625 0.503906 8.5 0.4375 8.5625 0.4375 C 8.757812 0.4375 8.753906 0.59375 8.546875 0.90625 C 8.484375 1.007812 8.351562 1.144531 8.15625 1.3125 C 7.96875 1.488281 7.78125 1.578125 7.59375 1.578125 C 7.019531 1.578125 6.578125 1.179688 6.265625 0.390625 C 5.960938 -0.390625 5.8125 -1.410156 5.8125 -2.671875 C 5.8125 -4.796875 6.128906 -6.984375 6.765625 -9.234375 C 6.796875 -9.453125 6.707031 -9.546875 6.5 -9.515625 C 6.394531 -9.503906 6.296875 -9.445312 6.203125 -9.34375 C 5.472656 -8.6875 4.722656 -7.664062 3.953125 -6.28125 Z M 3.953125 -6.28125 "/></g></g></g><g fill="#000000" fill-opacity="1"><g transform="translate(51.732823, 22.373369)"><g><path d="M 0.5625 -1.84375 C 0.5625 -3.976562 0.78125 -5.882812 1.21875 -7.5625 C 1.664062 -9.238281 2.226562 -10.078125 2.90625 -10.078125 C 3.238281 -10.078125 3.40625 -9.894531 3.40625 -9.53125 C 3.257812 -9.15625 3.078125 -8.65625 2.859375 -8.03125 C 2.640625 -7.414062 2.351562 -6.296875 2 -4.671875 C 1.644531 -3.046875 1.46875 -1.597656 1.46875 -0.328125 C 1.46875 -0.117188 1.363281 -0.015625 1.15625 -0.015625 C 0.757812 -0.015625 0.5625 -0.625 0.5625 -1.84375 Z M 3.46875 -12.109375 C 3.164062 -12.109375 3.015625 -12.398438 3.015625 -12.984375 C 3.015625 -13.328125 3.109375 -13.691406 3.296875 -14.078125 C 3.484375 -14.460938 3.75 -14.65625 4.09375 -14.65625 C 4.382812 -14.65625 4.53125 -14.488281 4.53125 -14.15625 C 4.53125 -13.820312 4.265625 -13.265625 3.734375 -12.484375 Z M 3.46875 -12.109375 "/></g></g></g><g fill="#000000" fill-opacity="1"><g transform="translate(56.457807, 22.373369)"><g><path d="M 1.28125 -9.390625 C 0.71875 -9.390625 0.4375 -9.617188 0.4375 -10.078125 C 0.4375 -10.253906 0.507812 -10.363281 0.65625 -10.40625 C 0.664062 -10.414062 0.6875 -10.421875 0.71875 -10.421875 C 0.800781 -10.328125 0.960938 -10.28125 1.203125 -10.28125 C 1.441406 -10.28125 1.820312 -10.289062 2.34375 -10.3125 C 3.019531 -12.144531 3.671875 -13.0625 4.296875 -13.0625 C 4.535156 -13.0625 4.65625 -12.925781 4.65625 -12.65625 C 4.425781 -12.082031 4.164062 -11.335938 3.875 -10.421875 C 5.3125 -10.585938 6.242188 -10.671875 6.671875 -10.671875 C 6.785156 -10.671875 6.84375 -10.609375 6.84375 -10.484375 C 6.84375 -10.253906 6.691406 -10.140625 6.390625 -10.140625 C 6.234375 -10.140625 5.316406 -9.988281 3.640625 -9.6875 C 2.492188 -6.070312 1.921875 -3.144531 1.921875 -0.90625 C 1.921875 1.332031 2.367188 2.453125 3.265625 2.453125 C 3.628906 2.453125 3.96875 2.296875 4.28125 1.984375 C 4.601562 1.671875 4.832031 1.363281 4.96875 1.0625 C 5.019531 0.90625 5.140625 0.863281 5.328125 0.9375 C 5.421875 0.957031 5.453125 1 5.421875 1.0625 C 5.328125 1.25 5.21875 1.460938 5.09375 1.703125 C 4.96875 1.953125 4.710938 2.257812 4.328125 2.625 C 3.953125 2.988281 3.570312 3.171875 3.1875 3.171875 C 1.46875 3.171875 0.609375 1.671875 0.609375 -1.328125 C 0.609375 -3.847656 1.078125 -6.546875 2.015625 -9.421875 C 1.816406 -9.398438 1.570312 -9.390625 1.28125 -9.390625 Z M 1.28125 -9.390625 "/></g></g></g><g fill="#000000" fill-opacity="1"><g transform="translate(62.721661, 22.373369)"><g><path d="M 5.671875 -10.515625 C 6.765625 -10.515625 7.3125 -9.867188 7.3125 -8.578125 C 7.3125 -7.847656 7.066406 -7.078125 6.578125 -6.265625 C 5.742188 -4.921875 4.632812 -4.25 3.25 -4.25 C 3.03125 -4.25 2.847656 -4.285156 2.703125 -4.359375 C 2.554688 -4.429688 2.445312 -4.539062 2.375 -4.6875 C 3.40625 -4.6875 4.347656 -5.273438 5.203125 -6.453125 C 5.890625 -7.410156 6.234375 -8.285156 6.234375 -9.078125 C 6.234375 -9.671875 5.992188 -9.96875 5.515625 -9.96875 C 4.566406 -9.96875 3.679688 -9.222656 2.859375 -7.734375 C 1.972656 -6.117188 1.53125 -4.457031 1.53125 -2.75 C 1.53125 -1.300781 1.941406 -0.4375 2.765625 -0.15625 C 2.921875 -0.09375 3.125 -0.0625 3.375 -0.0625 C 3.625 -0.0625 3.882812 -0.125 4.15625 -0.25 C 4.425781 -0.375 4.65625 -0.519531 4.84375 -0.6875 C 5.21875 -1.039062 5.53125 -1.425781 5.78125 -1.84375 C 5.84375 -1.957031 5.953125 -2.015625 6.109375 -2.015625 C 6.367188 -2.015625 6.488281 -1.972656 6.46875 -1.890625 C 6.425781 -1.722656 6.265625 -1.453125 5.984375 -1.078125 C 5.703125 -0.703125 5.441406 -0.398438 5.203125 -0.171875 C 4.960938 0.046875 4.648438 0.242188 4.265625 0.421875 C 3.890625 0.597656 3.503906 0.6875 3.109375 0.6875 C 1.578125 0.6875 0.601562 -0.03125 0.1875 -1.46875 C 0.0625 -1.957031 0 -2.460938 0 -2.984375 C 0 -3.953125 0.222656 -5.007812 0.671875 -6.15625 C 1.378906 -7.882812 2.351562 -9.132812 3.59375 -9.90625 C 4.269531 -10.3125 4.960938 -10.515625 5.671875 -10.515625 Z M 5.671875 -10.515625 "/></g></g></g><g fill="#000000" fill-opacity="1"><g transform="translate(71.15294, 22.373369)"><g><path d="M 5.75 -1.796875 C 5.800781 -1.929688 5.921875 -2 6.109375 -2 C 6.296875 -2 6.390625 -1.953125 6.390625 -1.859375 L 6.390625 -1.796875 C 6.335938 -1.640625 6.179688 -1.382812 5.921875 -1.03125 C 5.660156 -0.675781 5.410156 -0.390625 5.171875 -0.171875 C 4.929688 0.046875 4.625 0.242188 4.25 0.421875 C 3.875 0.597656 3.488281 0.6875 3.09375 0.6875 C 1.582031 0.6875 0.613281 -0.0390625 0.1875 -1.5 C -0.1875 -2.851562 -0.0351562 -4.394531 0.640625 -6.125 C 1.328125 -7.863281 2.273438 -9.109375 3.484375 -9.859375 C 4.117188 -10.253906 4.722656 -10.453125 5.296875 -10.453125 C 5.878906 -10.453125 6.300781 -10.285156 6.5625 -9.953125 C 6.957031 -11.203125 7.457031 -11.828125 8.0625 -11.828125 C 8.289062 -11.828125 8.40625 -11.707031 8.40625 -11.46875 C 8.289062 -11.289062 8.140625 -11.0625 7.953125 -10.78125 C 7.773438 -10.5 7.535156 -9.992188 7.234375 -9.265625 C 6.929688 -8.546875 6.78125 -7.914062 6.78125 -7.375 C 6.78125 -7.1875 6.703125 -7.09375 6.546875 -7.09375 C 6.359375 -7.09375 6.25 -7.257812 6.21875 -7.59375 C 6.21875 -8.15625 6.269531 -8.679688 6.375 -9.171875 C 6.289062 -9.617188 5.972656 -9.84375 5.421875 -9.84375 C 4.378906 -9.84375 3.460938 -9.050781 2.671875 -7.46875 C 1.890625 -5.894531 1.5 -4.359375 1.5 -2.859375 C 1.5 -0.984375 2.085938 -0.046875 3.265625 -0.046875 C 3.734375 -0.046875 4.171875 -0.1875 4.578125 -0.46875 C 4.992188 -0.757812 5.289062 -1.050781 5.46875 -1.34375 Z M 5.75 -1.796875 "/></g></g></g><g fill="#000000" fill-opacity="1"><g transform="translate(79.562543, 22.373369)"><g><path d="M 1.28125 -9.390625 C 0.71875 -9.390625 0.4375 -9.617188 0.4375 -10.078125 C 0.4375 -10.253906 0.507812 -10.363281 0.65625 -10.40625 C 0.664062 -10.414062 0.6875 -10.421875 0.71875 -10.421875 C 0.800781 -10.328125 0.960938 -10.28125 1.203125 -10.28125 C 1.441406 -10.28125 1.820312 -10.289062 2.34375 -10.3125 C 3.019531 -12.144531 3.671875 -13.0625 4.296875 -13.0625 C 4.535156 -13.0625 4.65625 -12.925781 4.65625 -12.65625 C 4.425781 -12.082031 4.164062 -11.335938 3.875 -10.421875 C 5.3125 -10.585938 6.242188 -10.671875 6.671875 -10.671875 C 6.785156 -10.671875 6.84375 -10.609375 6.84375 -10.484375 C 6.84375 -10.253906 6.691406 -10.140625 6.390625 -10.140625 C 6.234375 -10.140625 5.316406 -9.988281 3.640625 -9.6875 C 2.492188 -6.070312 1.921875 -3.144531 1.921875 -0.90625 C 1.921875 1.332031 2.367188 2.453125 3.265625 2.453125 C 3.628906 2.453125 3.96875 2.296875 4.28125 1.984375 C 4.601562 1.671875 4.832031 1.363281 4.96875 1.0625 C 5.019531 0.90625 5.140625 0.863281 5.328125 0.9375 C 5.421875 0.957031 5.453125 1 5.421875 1.0625 C 5.328125 1.25 5.21875 1.460938 5.09375 1.703125 C 4.96875 1.953125 4.710938 2.257812 4.328125 2.625 C 3.953125 2.988281 3.570312 3.171875 3.1875 3.171875 C 1.46875 3.171875 0.609375 1.671875 0.609375 -1.328125 C 0.609375 -3.847656 1.078125 -6.546875 2.015625 -9.421875 C 1.816406 -9.398438 1.570312 -9.390625 1.28125 -9.390625 Z M 1.28125 -9.390625 "/></g></g></g></g></g></svg>