<svg xmlns="http://www.w3.org/2000/svg" xmlns:xlink="http://www.w3.org/1999/xlink" width="52" zoomAndPan="magnify" viewBox="0 0 39 50.999998" height="68" preserveAspectRatio="xMidYMid meet" version="1.0"><defs><clipPath id="ced5c72467"><path d="M 4 17 L 35 17 L 35 47 L 4 47 Z M 4 17 " clip-rule="nonzero"/></clipPath><clipPath id="13e24671f9"><path d="M 0.00390625 32.183594 L 24.082031 12.980469 L 38.976562 31.660156 L 14.898438 50.863281 Z M 0.00390625 32.183594 " clip-rule="nonzero"/></clipPath><clipPath id="f69eb0e330"><path d="M 8.796875 25.167969 L 15.285156 19.996094 C 17.621094 18.136719 20.59375 17.277344 23.558594 17.613281 C 26.523438 17.945312 29.234375 19.445312 31.097656 21.777344 L 31.964844 22.867188 C 33.824219 25.199219 34.679688 28.175781 34.347656 31.140625 C 34.011719 34.105469 32.515625 36.816406 30.183594 38.675781 L 23.695312 43.847656 C 21.363281 45.710938 18.386719 46.566406 15.421875 46.230469 C 12.457031 45.898438 9.746094 44.398438 7.882812 42.066406 L 7.015625 40.980469 C 5.15625 38.644531 4.300781 35.667969 4.632812 32.703125 C 4.96875 29.738281 6.464844 27.027344 8.796875 25.167969 Z M 8.796875 25.167969 " clip-rule="nonzero"/></clipPath><clipPath id="432f3ffc38"><path d="M 0.078125 0.0390625 L 30.800781 0.0390625 L 30.800781 29.800781 L 0.078125 29.800781 Z M 0.078125 0.0390625 " clip-rule="nonzero"/></clipPath><clipPath id="c3b2ef54f7"><path d="M -3.996094 15.183594 L 20.082031 -4.019531 L 34.976562 14.660156 L 10.898438 33.863281 Z M -3.996094 15.183594 " clip-rule="nonzero"/></clipPath><clipPath id="bd95790d74"><path d="M 4.796875 8.167969 L 11.285156 2.996094 C 13.621094 1.136719 16.59375 0.277344 19.558594 0.613281 C 22.523438 0.945312 25.234375 2.445312 27.097656 4.777344 L 27.964844 5.867188 C 29.824219 8.199219 30.679688 11.175781 30.347656 14.140625 C 30.011719 17.105469 28.515625 19.816406 26.183594 21.675781 L 19.695312 26.847656 C 17.363281 28.710938 14.386719 29.566406 11.421875 29.230469 C 8.457031 28.898438 5.746094 27.398438 3.882812 25.066406 L 3.015625 23.980469 C 1.15625 21.644531 0.300781 18.667969 0.632812 15.703125 C 0.96875 12.738281 2.464844 10.027344 4.796875 8.167969 Z M 4.796875 8.167969 " clip-rule="nonzero"/></clipPath><clipPath id="68edccb639"><rect x="0" width="31" y="0" height="30"/></clipPath><clipPath id="e6c18faebb"><path d="M 3 3 L 34 3 L 34 30 L 3 30 Z M 3 3 " clip-rule="nonzero"/></clipPath><clipPath id="e178917896"><path d="M 8.3125 0 L 37.1875 10.71875 L 28.871094 33.117188 L 0 22.398438 Z M 8.3125 0 " clip-rule="nonzero"/></clipPath><clipPath id="329e028a80"><path d="M 18.859375 3.914062 L 26.636719 6.800781 C 29.4375 7.839844 31.707031 9.945312 32.949219 12.660156 C 34.191406 15.371094 34.308594 18.464844 33.269531 21.265625 L 32.785156 22.570312 C 31.746094 25.367188 29.640625 27.636719 26.929688 28.878906 C 24.214844 30.125 21.121094 30.238281 18.324219 29.199219 L 10.546875 26.3125 C 7.746094 25.273438 5.476562 23.167969 4.234375 20.457031 C 2.992188 17.746094 2.875 14.648438 3.914062 11.851562 L 4.398438 10.546875 C 5.4375 7.75 7.542969 5.480469 10.253906 4.234375 C 12.96875 2.992188 16.0625 2.875 18.859375 3.914062 Z M 18.859375 3.914062 " clip-rule="nonzero"/></clipPath><clipPath id="95a5ea761d"><path d="M 0 0 L 31 0 L 31 27 L 0 27 Z M 0 0 " clip-rule="nonzero"/></clipPath><clipPath id="2189dd2c21"><path d="M 5.3125 -3 L 34.1875 7.71875 L 25.871094 30.117188 L -3 19.398438 Z M 5.3125 -3 " clip-rule="nonzero"/></clipPath><clipPath id="ccf27154fa"><path d="M 15.859375 0.914062 L 23.636719 3.800781 C 26.4375 4.839844 28.707031 6.945312 29.949219 9.660156 C 31.191406 12.371094 31.308594 15.464844 30.269531 18.265625 L 29.785156 19.570312 C 28.746094 22.367188 26.640625 24.636719 23.929688 25.878906 C 21.214844 27.125 18.121094 27.238281 15.324219 26.199219 L 7.546875 23.3125 C 4.746094 22.273438 2.476562 20.167969 1.234375 17.457031 C -0.0078125 14.746094 -0.125 11.648438 0.914062 8.851562 L 1.398438 7.546875 C 2.4375 4.75 4.542969 2.480469 7.253906 1.234375 C 9.96875 -0.0078125 13.0625 -0.125 15.859375 0.914062 Z M 15.859375 0.914062 " clip-rule="nonzero"/></clipPath><clipPath id="95b557414d"><rect x="0" width="31" y="0" height="27"/></clipPath></defs><g clip-path="url(#ced5c72467)"><g clip-path="url(#13e24671f9)"><g clip-path="url(#f69eb0e330)"><g transform="matrix(1, 0, 0, 1, 4, 17)"><g clip-path="url(#68edccb639)"><g clip-path="url(#432f3ffc38)"><g clip-path="url(#c3b2ef54f7)"><g clip-path="url(#bd95790d74)"><path fill="#f2c94c" d="M -3.996094 15.183594 L 20.082031 -4.019531 L 34.976562 14.660156 L 10.898438 33.863281 Z M -3.996094 15.183594 " fill-opacity="1" fill-rule="nonzero"/></g></g></g></g></g></g></g></g><g clip-path="url(#e6c18faebb)"><g clip-path="url(#e178917896)"><g clip-path="url(#329e028a80)"><g transform="matrix(1, 0, 0, 1, 3, 3)"><g clip-path="url(#95b557414d)"><g clip-path="url(#95a5ea761d)"><g clip-path="url(#2189dd2c21)"><g clip-path="url(#ccf27154fa)"><path fill="#1f4e79" d="M 5.3125 -3 L 34.1875 7.71875 L 25.871094 30.117188 L -3 19.398438 Z M 5.3125 -3 " fill-opacity="1" fill-rule="nonzero"/></g></g></g></g></g></g></g></g></svg>